<?xml version="1.0" encoding="UTF-8"?>
<svg version="1.1" xmlns="http://www.w3.org/2000/svg" width="1206" height="276">
    <path
        d="M0 0 C397.98 0 795.96 0 1206 0 C1206 91.08 1206 182.16 1206 276 C808.02 276 410.04 276 0 276 C0 184.92 0 93.84 0 0 Z "
        fill="transparent" transform="translate(0,0)" />
    <path
        d="M0 0 C1.14655563 -0.00902847 2.29311127 -0.01805695 3.47441101 -0.02735901 C5.89591876 -0.04184007 8.31746545 -0.0507429 10.73901367 -0.05444336 C14.42629551 -0.06633234 18.11189941 -0.11553674 21.79882812 -0.16601562 C24.15754396 -0.17548154 26.51627002 -0.18271577 28.875 -0.1875 C30.51605461 -0.21679848 30.51605461 -0.21679848 32.19026184 -0.24668884 C39.25229135 -0.20546034 44.48996972 0.95708469 50.13671875 5.37109375 C54.33891543 10.03610455 54.27820671 14.43475109 54.13671875 20.37109375 C55.42247803 20.36062012 56.7082373 20.35014648 58.03295898 20.33935547 C62.83566467 20.3029608 67.63835833 20.28012278 72.44116211 20.26123047 C74.51377416 20.25121707 76.58637224 20.2376024 78.65893555 20.22021484 C81.65026309 20.19576062 84.64140269 20.18456375 87.6328125 20.17578125 C88.54880722 20.16545868 89.46480194 20.15513611 90.40855408 20.14450073 C103.99248784 20.14216951 116.16389116 24.53574354 126.1015625 34.05859375 C137.58955065 47.11212347 138.5935394 62.67157953 138.54077148 79.26782227 C138.54648908 80.91380268 138.55345865 82.55977915 138.56156921 84.20574951 C138.57935868 88.63339633 138.57835978 93.06084346 138.57262683 97.48851514 C138.56951542 101.20108688 138.57564869 104.91362134 138.58166558 108.62618774 C138.59566138 117.39006555 138.59418982 126.15384576 138.58276367 134.91772461 C138.5712765 143.92694078 138.58537951 152.93585946 138.61216015 161.94503647 C138.63437926 169.71363167 138.64094089 177.4821339 138.63508373 185.25075859 C138.63172909 189.87604691 138.63402967 194.50114445 138.65133476 199.12640572 C138.66690233 203.47607458 138.66274076 207.82530511 138.64402962 212.17495728 C138.64037127 213.76110188 138.64337074 215.34727971 138.65391541 216.93339348 C138.74159668 231.22477464 136.47249137 243.10034262 127.13671875 254.37109375 C126.6365625 255.00660156 126.13640625 255.64210938 125.62109375 256.296875 C118.64216516 264.24509922 107.42220098 268.89107103 97.13671875 270.37109375 C91.74955617 270.66801325 86.3685774 270.66559737 80.9753418 270.66162109 C79.34818211 270.66761381 77.72102525 270.67442105 76.09387207 270.68197632 C71.69496389 270.69956708 67.29613363 270.70432874 62.89719367 270.70560789 C60.14335121 270.70703388 57.38952828 270.71131193 54.63569069 270.71660233 C45.01272967 270.73507909 35.38982388 270.74327582 25.7668457 270.74169922 C16.82191356 270.74049819 7.87722285 270.76159907 -1.06764823 270.79318655 C-8.76902654 270.81940572 -16.47032626 270.83006417 -24.17174882 270.8287884 C-28.76188201 270.82828046 -33.3518004 270.83387024 -37.94188881 270.8551445 C-42.26192276 270.87462254 -46.58153906 270.8745866 -50.90158844 270.86011124 C-52.47848057 270.8580339 -54.05539951 270.86265921 -55.63224602 270.87483215 C-69.95804417 270.97817971 -83.16314748 268.32550177 -94.05078125 258.37109375 C-102.67508539 249.22410451 -108.09111522 238.63009066 -108.13743591 225.93515015 C-108.14267259 225.21963631 -108.14790927 224.50412248 -108.15330464 223.76692641 C-108.1682191 221.38671482 -108.16900789 219.00671982 -108.16967773 216.62646484 C-108.17730514 214.91255332 -108.18573363 213.1986452 -108.19490051 211.48474121 C-108.21679874 206.83979622 -108.22563846 202.19491705 -108.23072696 197.54992628 C-108.23437694 194.6429832 -108.24062043 191.73605719 -108.24772835 188.82912064 C-108.27220942 178.6733449 -108.28527124 168.51762013 -108.28881836 158.36181641 C-108.29244959 148.91930434 -108.32231884 139.4771181 -108.36422294 130.03470552 C-108.39900727 121.90957645 -108.41436823 113.78455491 -108.41506439 105.65935194 C-108.41585462 100.81480153 -108.42447533 95.97058306 -108.45306206 91.12611008 C-108.4793817 86.56391735 -108.48137106 82.00232848 -108.46540642 77.44009399 C-108.46360275 75.77492574 -108.47018376 74.10972164 -108.48622513 72.44462967 C-108.62256241 57.36121945 -105.29777271 44.78326328 -94.86328125 33.37109375 C-88.24447223 27.40512629 -81.35198945 23.90910279 -72.86328125 21.37109375 C-71.87328125 21.04109375 -70.88328125 20.71109375 -69.86328125 20.37109375 C-68.43609488 20.28498861 -67.00521477 20.25337547 -65.57543945 20.25756836 C-64.71477371 20.25764389 -63.85410797 20.25771942 -62.96736145 20.25779724 C-62.0422728 20.26295853 -61.11718414 20.26811981 -60.1640625 20.2734375 C-59.21387741 20.27485245 -58.26369232 20.2762674 -57.28471375 20.27772522 C-54.24837096 20.283325 -51.21210177 20.29587743 -48.17578125 20.30859375 C-46.11783961 20.31360878 -44.05989681 20.31817168 -42.00195312 20.32226562 C-36.95570079 20.33329435 -31.9095035 20.35055882 -26.86328125 20.37109375 C-26.8055957 19.75403564 -26.74791016 19.13697754 -26.68847656 18.5012207 C-26.60694336 17.69128662 -26.52541016 16.88135254 -26.44140625 16.046875 C-26.32394043 14.84285034 -26.32394043 14.84285034 -26.20410156 13.61450195 C-25.55897534 9.36803713 -23.60025186 7.06822811 -20.55078125 4.18359375 C-14.07200701 -0.18581213 -7.55380583 0.03682253 0 0 Z "
        fill="transparent" transform="translate(110.86328125,2.62890625)" />
    <path
        d="M0 0 C1.14655563 -0.00902847 2.29311127 -0.01805695 3.47441101 -0.02735901 C5.89591876 -0.04184007 8.31746545 -0.0507429 10.73901367 -0.05444336 C14.42629551 -0.06633234 18.11189941 -0.11553674 21.79882812 -0.16601562 C24.15754396 -0.17548154 26.51627002 -0.18271577 28.875 -0.1875 C30.51605461 -0.21679848 30.51605461 -0.21679848 32.19026184 -0.24668884 C39.25229135 -0.20546034 44.48996972 0.95708469 50.13671875 5.37109375 C54.33891543 10.03610455 54.27820671 14.43475109 54.13671875 20.37109375 C55.42247803 20.36062012 56.7082373 20.35014648 58.03295898 20.33935547 C62.83566467 20.3029608 67.63835833 20.28012278 72.44116211 20.26123047 C74.51377416 20.25121707 76.58637224 20.2376024 78.65893555 20.22021484 C81.65026309 20.19576062 84.64140269 20.18456375 87.6328125 20.17578125 C88.54880722 20.16545868 89.46480194 20.15513611 90.40855408 20.14450073 C103.99248784 20.14216951 116.16389116 24.53574354 126.1015625 34.05859375 C137.58955065 47.11212347 138.5935394 62.67157953 138.54077148 79.26782227 C138.54648908 80.91380268 138.55345865 82.55977915 138.56156921 84.20574951 C138.57935868 88.63339633 138.57835978 93.06084346 138.57262683 97.48851514 C138.56951542 101.20108688 138.57564869 104.91362134 138.58166558 108.62618774 C138.59566138 117.39006555 138.59418982 126.15384576 138.58276367 134.91772461 C138.5712765 143.92694078 138.58537951 152.93585946 138.61216015 161.94503647 C138.63437926 169.71363167 138.64094089 177.4821339 138.63508373 185.25075859 C138.63172909 189.87604691 138.63402967 194.50114445 138.65133476 199.12640572 C138.66690233 203.47607458 138.66274076 207.82530511 138.64402962 212.17495728 C138.64037127 213.76110188 138.64337074 215.34727971 138.65391541 216.93339348 C138.74159668 231.22477464 136.47249137 243.10034262 127.13671875 254.37109375 C126.6365625 255.00660156 126.13640625 255.64210938 125.62109375 256.296875 C118.64216516 264.24509922 107.42220098 268.89107103 97.13671875 270.37109375 C91.74955617 270.66801325 86.3685774 270.66559737 80.9753418 270.66162109 C79.34818211 270.66761381 77.72102525 270.67442105 76.09387207 270.68197632 C71.69496389 270.69956708 67.29613363 270.70432874 62.89719367 270.70560789 C60.14335121 270.70703388 57.38952828 270.71131193 54.63569069 270.71660233 C45.01272967 270.73507909 35.38982388 270.74327582 25.7668457 270.74169922 C16.82191356 270.74049819 7.87722285 270.76159907 -1.06764823 270.79318655 C-8.76902654 270.81940572 -16.47032626 270.83006417 -24.17174882 270.8287884 C-28.76188201 270.82828046 -33.3518004 270.83387024 -37.94188881 270.8551445 C-42.26192276 270.87462254 -46.58153906 270.8745866 -50.90158844 270.86011124 C-52.47848057 270.8580339 -54.05539951 270.86265921 -55.63224602 270.87483215 C-69.95804417 270.97817971 -83.16314748 268.32550177 -94.05078125 258.37109375 C-102.67508539 249.22410451 -108.09111522 238.63009066 -108.13743591 225.93515015 C-108.14267259 225.21963631 -108.14790927 224.50412248 -108.15330464 223.76692641 C-108.1682191 221.38671482 -108.16900789 219.00671982 -108.16967773 216.62646484 C-108.17730514 214.91255332 -108.18573363 213.1986452 -108.19490051 211.48474121 C-108.21679874 206.83979622 -108.22563846 202.19491705 -108.23072696 197.54992628 C-108.23437694 194.6429832 -108.24062043 191.73605719 -108.24772835 188.82912064 C-108.27220942 178.6733449 -108.28527124 168.51762013 -108.28881836 158.36181641 C-108.29244959 148.91930434 -108.32231884 139.4771181 -108.36422294 130.03470552 C-108.39900727 121.90957645 -108.41436823 113.78455491 -108.41506439 105.65935194 C-108.41585462 100.81480153 -108.42447533 95.97058306 -108.45306206 91.12611008 C-108.4793817 86.56391735 -108.48137106 82.00232848 -108.46540642 77.44009399 C-108.46360275 75.77492574 -108.47018376 74.10972164 -108.48622513 72.44462967 C-108.62256241 57.36121945 -105.29777271 44.78326328 -94.86328125 33.37109375 C-88.24447223 27.40512629 -81.35198945 23.90910279 -72.86328125 21.37109375 C-71.87328125 21.04109375 -70.88328125 20.71109375 -69.86328125 20.37109375 C-68.43609488 20.28498861 -67.00521477 20.25337547 -65.57543945 20.25756836 C-64.71477371 20.25764389 -63.85410797 20.25771942 -62.96736145 20.25779724 C-62.0422728 20.26295853 -61.11718414 20.26811981 -60.1640625 20.2734375 C-59.21387741 20.27485245 -58.26369232 20.2762674 -57.28471375 20.27772522 C-54.24837096 20.283325 -51.21210177 20.29587743 -48.17578125 20.30859375 C-46.11783961 20.31360878 -44.05989681 20.31817168 -42.00195312 20.32226562 C-36.95570079 20.33329435 -31.9095035 20.35055882 -26.86328125 20.37109375 C-26.8055957 19.75403564 -26.74791016 19.13697754 -26.68847656 18.5012207 C-26.60694336 17.69128662 -26.52541016 16.88135254 -26.44140625 16.046875 C-26.32394043 14.84285034 -26.32394043 14.84285034 -26.20410156 13.61450195 C-25.55897534 9.36803713 -23.60025186 7.06822811 -20.55078125 4.18359375 C-14.07200701 -0.18581213 -7.55380583 0.03682253 0 0 Z M-84.17578125 47.74609375 C-89.56518925 54.48285375 -90.98252675 61.63883748 -91.00372314 70.13114929 C-91.00669427 70.79806835 -91.00966539 71.4649874 -91.01272655 72.15211612 C-91.02137567 74.37966253 -91.02291858 76.60715495 -91.02441406 78.8347168 C-91.02904497 80.43497329 -91.03407 82.03522867 -91.03945923 83.63548279 C-91.05256012 87.97869443 -91.05902383 92.32189063 -91.06346989 96.66511893 C-91.06640472 99.38139601 -91.07051033 102.0976689 -91.07497406 104.81394386 C-91.08864374 113.32061515 -91.09831263 121.82727682 -91.10217595 130.33395833 C-91.10665367 140.1384468 -91.12419047 149.94279565 -91.15317655 159.74724168 C-91.17482837 167.33554927 -91.18488212 174.92381769 -91.18621707 182.51215583 C-91.18726271 187.0396546 -91.19311899 191.56702202 -91.21103668 196.09448814 C-91.22757771 200.35694395 -91.22964376 204.61917054 -91.22089767 208.88164711 C-91.22013048 210.44002524 -91.22442779 211.998416 -91.23435593 213.5567627 C-91.30532898 225.39796028 -90.58516131 235.13492421 -82.75 244.46484375 C-79.95166292 247.29214912 -77.50270881 248.71100399 -73.86328125 250.37109375 C-72.25348892 251.15185776 -72.25348892 251.15185776 -70.61117554 251.94839478 C-64.12632619 254.33139308 -57.14581238 253.78893708 -50.33447266 253.75927734 C-48.76332739 253.76334734 -47.192185 253.76869161 -45.62104797 253.77520752 C-41.37091389 253.78883836 -37.12099926 253.78359944 -32.87086153 253.77407026 C-28.41124686 253.76644899 -23.95165036 253.77352636 -19.49203491 253.77822876 C-12.0021428 253.78368027 -4.51233955 253.77651177 2.97753906 253.76220703 C11.61856195 253.7458936 20.25937232 253.75116194 28.90039003 253.76768625 C36.33590866 253.78133262 43.77136358 253.78320505 51.2068907 253.77537024 C55.64042809 253.77070947 60.07386584 253.77002446 64.5073967 253.77997971 C68.67881699 253.78869265 72.84996543 253.78254906 77.02135658 253.76529694 C78.54586271 253.76135457 80.070392 253.76242724 81.59488869 253.76908493 C94.57351115 253.82050648 104.46160925 252.57037819 114.13671875 243.37109375 C121.82059123 234.27177107 121.57064225 222.91472379 121.5090332 211.61523438 C121.51146544 210.04379537 121.51518893 208.47235791 121.52009583 206.90092468 C121.5294494 202.65916141 121.52012624 198.41763113 121.5067637 194.17588615 C121.49538866 189.72162752 121.49956137 185.26737935 121.50151062 180.81311035 C121.50239169 173.3351667 121.49135243 165.85731402 121.47290039 158.37939453 C121.45173567 149.75313395 121.44822405 141.12700656 121.45446235 132.50072527 C121.46017152 124.17772711 121.45449207 115.8547755 121.4432888 107.53178406 C121.43866336 104.00094231 121.43776002 100.47012922 121.43987465 96.93928528 C121.4417685 92.77609167 121.43356999 88.61303219 121.41781425 84.44986916 C121.41359846 82.92858752 121.41270247 81.40729221 121.41550446 79.88600731 C121.43582547 66.87190014 121.0369184 55.20180458 112.0078125 45.046875 C104.94107181 38.71778991 96.63102234 37.25070871 87.43276978 37.23738098 C86.78400293 37.23511542 86.13523608 37.23284987 85.46680963 37.23051566 C83.30679346 37.22421793 81.14684071 37.22500228 78.98681641 37.22583008 C77.43242818 37.22283596 75.87804069 37.21943285 74.32365417 37.21565247 C70.11079277 37.2068344 65.8979517 37.20447529 61.68508196 37.20383668 C59.05072729 37.20312499 56.41637777 37.20098841 53.78202438 37.19833946 C44.58514835 37.18909363 35.38828678 37.18500366 26.19140625 37.18579102 C17.62882069 37.18639176 9.06629813 37.1758387 0.50372851 37.16004735 C-6.85696914 37.14695795 -14.21764623 37.1416077 -21.57835543 37.14224643 C-25.97048639 37.14250098 -30.36256131 37.13967317 -34.75468063 37.12906837 C-38.88660575 37.11936371 -43.01842153 37.11932441 -47.15035057 37.12658501 C-48.66280083 37.12762787 -50.17525798 37.12528572 -51.68769646 37.11922455 C-64.42847973 37.0714906 -75.13919694 37.81700729 -84.17578125 47.74609375 Z "
        fill="#0576DE" transform="translate(110.86328125,2.62890625)" />
    <path
        d="M0 0 C0.68648337 -0.00382555 1.37296675 -0.00765109 2.08025265 -0.01159257 C4.38569178 -0.0219299 6.69088221 -0.01792912 8.99633789 -0.01396179 C10.64706656 -0.01830783 12.29779321 -0.02349061 13.94851685 -0.02944946 C18.43602348 -0.04286136 22.92344601 -0.04341578 27.41096878 -0.04088616 C31.15374781 -0.03981809 34.89650971 -0.04469554 38.63928509 -0.04949158 C47.46632348 -0.06059402 56.29331932 -0.06101982 65.12036133 -0.05497742 C74.23571787 -0.04893377 83.3509202 -0.06125687 92.46625042 -0.08254749 C100.28541138 -0.10014112 108.10452316 -0.10616845 115.92370319 -0.10290974 C120.596873 -0.1010934 125.26993277 -0.10376799 129.94308472 -0.11762428 C134.33600774 -0.13016195 138.72868959 -0.12829729 143.12160873 -0.11521339 C144.73613439 -0.11283929 146.35067681 -0.11561199 147.96518326 -0.12383652 C150.16473486 -0.13423565 152.3634669 -0.12625955 154.56298828 -0.11352539 C155.79521622 -0.11369313 157.02744415 -0.11386087 158.29701233 -0.1140337 C161.28149414 0.26069641 161.28149414 0.26069641 163.17430115 1.66860676 C166.20365892 6.02467584 164.4638809 12.39974138 163.66040039 17.32319641 C160.82308529 32.66163716 155.02780287 46.75956378 144.28149414 58.26069641 C143.53254883 59.0998761 142.78360352 59.93905579 142.01196289 60.80366516 C127.92282951 75.84876559 106.76901008 85.30864211 86.18603516 86.36860657 C62.02491297 87.04951344 37.02986207 82.7167376 18.71899414 65.76069641 C16.86362646 63.9628643 15.07370158 62.1236131 13.28149414 60.26069641 C12.54543945 59.5323761 11.80938477 58.80405579 11.05102539 58.05366516 C-1.89170701 44.56017819 -9.57051766 25.02481044 -9.96850586 6.38569641 C-9.99428711 5.64577454 -10.02006836 4.90585266 -10.04663086 4.14350891 C-9.93834961 3.52218079 -9.83006836 2.90085266 -9.71850586 2.26069641 C-6.06913452 -0.17221781 -4.34937045 0.00724597 0 0 Z "
        fill="#0578DF" transform="translate(48.718505859375,152.7393035888672)" />
    <path
        d="M0 0 C10.97810687 9.53653728 18.01751676 21.72372132 19.48925781 36.23388672 C20.3921758 52.44962503 18.00214413 66.08486777 7.25 78.875 C6.75113281 79.49632812 6.25226563 80.11765625 5.73828125 80.7578125 C-2.85399999 90.41060201 -16.20636523 96.30508923 -28.90625 97.21875 C-43.63756048 97.90322551 -56.25820398 94.56004198 -67.75 84.875 C-68.38292969 84.35292969 -69.01585937 83.83085937 -69.66796875 83.29296875 C-79.51856853 74.35566961 -85.18327074 61.0234077 -85.91796875 47.8671875 C-86.02508269 30.77180244 -82.59655874 16.66285507 -70.75 3.875 C-70.22921875 3.31167969 -69.7084375 2.74835938 -69.171875 2.16796875 C-50.4931181 -15.70892233 -19.91645613 -15.39875377 0 0 Z "
        fill="#0778DE" transform="translate(881.75,106.125)" />
    <path
        d="M0 0 C0.99451172 -0.07089844 1.98902344 -0.14179687 3.01367188 -0.21484375 C10.11950823 -0.39449896 10.11950823 -0.39449896 13.06347656 2.12133789 C14.73824841 4.53217596 16.01284039 6.99135917 17.3125 9.625 C17.94609999 10.79925596 18.58503543 11.97064314 19.22827148 13.13964844 C21.43259681 17.17082549 23.56230032 21.23920062 25.6875 25.3125 C27.12955242 28.06812754 28.57483807 30.82202726 30.0234375 33.57421875 C30.37533142 34.24307098 30.72722534 34.91192322 31.08978271 35.6010437 C34.67031826 42.3680036 38.46554309 49.00675402 42.3125 55.625 C42.70405273 54.86171387 43.09560547 54.09842773 43.49902344 53.31201172 C50.24717935 40.17221367 57.00566262 27.04005507 64.0625 14.0625 C64.79484863 12.70970947 64.79484863 12.70970947 65.54199219 11.32958984 C65.99735352 10.49766113 66.45271484 9.66573242 66.921875 8.80859375 C67.31342773 8.09243896 67.70498047 7.37628418 68.10839844 6.63842773 C68.50575195 5.97399658 68.90310547 5.30956543 69.3125 4.625 C69.96424194 3.51765503 69.96424194 3.51765503 70.62915039 2.38793945 C72.3125 0.625 72.3125 0.625 74.7644043 0.17089844 C75.71226807 0.1918457 76.66013184 0.21279297 77.63671875 0.234375 C79.17875977 0.25371094 79.17875977 0.25371094 80.75195312 0.2734375 C81.82380859 0.30695313 82.89566406 0.34046875 84 0.375 C85.08345703 0.39304687 86.16691406 0.41109375 87.28320312 0.4296875 C89.96056588 0.4768657 92.63594033 0.54608707 95.3125 0.625 C96.70359897 11.37602362 96.45775784 22.19082134 96.4453125 33.0078125 C96.44598692 35.07477835 96.44695809 37.14174413 96.44821167 39.20870972 C96.44967885 43.51707726 96.44756351 47.82542395 96.44287109 52.13378906 C96.4371384 57.66778255 96.4404812 63.20172791 96.44644356 68.73571968 C96.45004515 72.99232348 96.44891307 77.24891573 96.44631577 81.50551987 C96.44564723 83.54776897 96.44647236 85.59001911 96.44879532 87.632267 C96.4513191 90.47118194 96.44748683 93.31001684 96.44189453 96.14892578 C96.44493088 97.42203865 96.44493088 97.42203865 96.44802856 98.72087097 C96.42677009 104.51072991 96.42677009 104.51072991 95.3125 105.625 C88.0525 105.625 80.7925 105.625 73.3125 105.625 C72.9825 84.835 72.6525 64.045 72.3125 42.625 C69.3425 48.235 66.3725 53.845 63.3125 59.625 C60.42572112 64.74301016 57.4386396 69.78248174 54.38916016 74.80419922 C53.44268691 76.40483357 52.56502776 78.04574022 51.69921875 79.69140625 C49.82273056 83.069085 48.65456512 85.14600636 44.9375 86.47265625 C41.9985554 86.78316974 40.12096886 86.53680514 37.3125 85.625 C35.76000977 83.98583984 35.76000977 83.98583984 34.44140625 81.8359375 C33.93754395 81.02237793 33.43368164 80.20881836 32.91455078 79.37060547 C29.96750026 74.31993035 27.07869255 69.24300278 24.25 64.125 C23.65123047 63.04863281 23.05246094 61.97226563 22.43554688 60.86328125 C21.31205649 58.84272133 20.19002398 56.82134943 19.07006836 54.79882812 C16.8216457 50.73861219 14.56646704 46.68214068 12.3125 42.625 C11.9825 63.415 11.6525 84.205 11.3125 105.625 C4.0525 105.625 -3.2075 105.625 -10.6875 105.625 C-12.21588931 104.09661069 -11.81342254 102.73264732 -11.81448364 100.60119629 C-11.81730347 99.73460892 -11.82012329 98.86802155 -11.82302856 97.97517395 C-11.82100433 97.0172142 -11.8189801 96.05925446 -11.81689453 95.07226562 C-11.81864685 94.06910812 -11.82039917 93.06595062 -11.82220459 92.03239441 C-11.82662516 88.69866228 -11.82368439 85.36498271 -11.8203125 82.03125 C-11.82098548 79.72578928 -11.82195545 77.42032864 -11.82321167 75.11486816 C-11.82468892 70.27595343 -11.82253321 65.43705713 -11.81787109 60.59814453 C-11.8121738 54.38005355 -11.81545266 48.16200572 -11.82144356 41.94391632 C-11.82504843 37.18116935 -11.82391092 32.4184327 -11.82131577 27.65568542 C-11.82064629 25.36223851 -11.82147562 23.06879068 -11.82379532 20.77534485 C-11.82632064 17.57611594 -11.82248295 14.37695797 -11.81689453 11.17773438 C-11.81891876 10.21977463 -11.82094299 9.26181488 -11.82302856 8.27482605 C-11.82020874 7.40823868 -11.81738892 6.54165131 -11.81448364 5.64880371 C-11.81410662 4.8914669 -11.81372959 4.1341301 -11.81334114 3.35384369 C-11.46421927 -1.44249822 -3.60021798 0.11443795 0 0 Z "
        fill="#0678DE" transform="translate(929.6875,96.375)" />
    <path
        d="M0 0 C1.00289063 -0.06251953 2.00578125 -0.12503906 3.0390625 -0.18945312 C10.16223778 -0.34533163 10.16223778 -0.34533163 12.77612305 1.83618164 C14.17506084 3.99817642 15.18756945 6.21495245 16.25 8.5625 C17.19824713 10.32932052 18.14739099 12.09569947 19.1088562 13.85536194 C20.96130309 17.26022195 22.75661689 20.69528964 24.5625 24.125 C25.29073469 25.50340367 26.01924875 26.88165978 26.74804688 28.25976562 C27.83312694 30.31182985 28.91793185 32.36403516 30.00149536 34.41690063 C33.7286564 41.47735877 37.48725983 48.52095498 41.25 55.5625 C54.5327991 32.32502946 54.5327991 32.32502946 66.70141602 8.49804688 C69.51753323 2.67319156 69.51753323 2.67319156 72.25 0.5625 C74.61010742 0.22192383 74.61010742 0.22192383 77.35546875 0.26953125 C78.33837891 0.27919922 79.32128906 0.28886719 80.33398438 0.29882812 C81.35814453 0.32396484 82.38230469 0.34910156 83.4375 0.375 C84.47326172 0.38853516 85.50902344 0.40207031 86.57617188 0.41601562 C89.13463699 0.45138611 91.6920578 0.50074456 94.25 0.5625 C95.39521613 2.85293226 95.3757024 4.12312926 95.37698364 6.66859436 C95.38121338 7.95791618 95.38121338 7.95791618 95.38552856 9.27328491 C95.38249222 10.69080551 95.38249222 10.69080551 95.37939453 12.13696289 C95.38202301 13.62728783 95.38202301 13.62728783 95.38470459 15.14772034 C95.38911876 18.44354989 95.38618685 21.73932612 95.3828125 25.03515625 C95.38348561 27.31676748 95.38445569 29.59837864 95.38571167 31.87998962 C95.38718801 36.66584963 95.38503592 41.45169099 95.38037109 46.23754883 C95.37467063 52.38723005 95.37795524 58.53686766 95.38394356 64.68654728 C95.38754814 69.39867993 95.38641112 74.11080215 95.38381577 78.8229351 C95.38314638 81.09126223 95.38397533 83.35959029 95.38629532 85.62791634 C95.3888205 88.79111382 95.3849833 91.95423954 95.37939453 95.11743164 C95.38141876 96.0644696 95.38344299 97.01150757 95.38552856 97.98724365 C95.36426293 104.44823707 95.36426293 104.44823707 94.25 105.5625 C87.32 105.5625 80.39 105.5625 73.25 105.5625 C72.92 84.4425 72.59 63.3225 72.25 41.5625 C68.75658315 47.96709755 65.27231169 54.37409181 61.81225586 60.79638672 C59.76962508 64.56376532 57.69206238 68.31150484 55.61425781 72.05957031 C54.46670459 74.16492386 53.37350576 76.28387423 52.3046875 78.4296875 C48.76415747 85.01473127 48.76415747 85.01473127 44.59375 86.5234375 C39.44593973 87.03545089 39.44593973 87.03545089 36.25 85.5625 C30.98072619 79.47251412 27.49766496 71.6974936 23.75 64.625 C22.65853822 62.573 21.56480744 60.52220519 20.46875 58.47265625 C19.7562207 57.12892944 19.7562207 57.12892944 19.02929688 55.75805664 C16.54535631 51.29698392 13.87701001 46.94085002 11.25 42.5625 C10.92 63.3525 10.59 84.1425 10.25 105.5625 C2.99 105.5625 -4.27 105.5625 -11.75 105.5625 C-13.53088419 103.78161581 -12.87624197 101.39177442 -12.88552856 99.02011108 C-12.88350433 98.22440704 -12.8814801 97.428703 -12.87939453 96.60888672 C-12.88114685 95.77452087 -12.88289917 94.94015503 -12.88470459 94.08050537 C-12.88913114 91.30104534 -12.88617862 88.52164827 -12.8828125 85.7421875 C-12.8834862 83.80656929 -12.88445678 81.87095117 -12.88571167 79.93533325 C-12.88719044 75.86134034 -12.88503164 71.78736928 -12.88037109 67.71337891 C-12.87472672 62.53022924 -12.87791765 57.34713196 -12.88394356 52.1639843 C-12.88758997 48.15556457 -12.88639111 44.14715685 -12.88381577 40.13873672 C-12.88315494 38.23086669 -12.88394491 36.32299551 -12.88629532 34.4151268 C-12.90837271 11.4165493 -12.90837271 11.4165493 -11.75 1.5625 C-9.29123575 -0.89626425 -3.29318878 0.08962476 0 0 Z "
        fill="#0577DE" transform="translate(313.75,96.4375)" />
    <path
        d="M0 0 C1.084021 0.00523682 2.16804199 0.01047363 3.28491211 0.01586914 C4.45473633 0.0190918 5.62456055 0.02231445 6.82983398 0.02563477 C8.0615332 0.03401367 9.29323242 0.04239258 10.56225586 0.05102539 C12.41560547 0.05779297 12.41560547 0.05779297 14.30639648 0.06469727 C17.37089703 0.07652931 20.43530307 0.09301366 23.49975586 0.11352539 C29.0350281 13.88558498 34.00921964 27.84593405 38.93183899 41.84587097 C40.86436729 47.3332256 42.82117796 52.81163762 44.78549194 58.28768921 C46.34705733 62.64246167 47.90334735 66.99911172 49.45928955 71.355896 C50.232886 73.51819836 51.00870539 75.67970679 51.7868042 77.84039307 C52.88737733 80.89802588 53.97955904 83.95854136 55.07006836 87.01977539 C55.40186096 87.93524139 55.73365356 88.8507074 56.07550049 89.79391479 C57.77118878 94.58098016 59.11322016 99.03527516 59.49975586 104.11352539 C58.49975586 105.11352539 58.49975586 105.11352539 56.45849609 105.22705078 C55.58394775 105.22181396 54.70939941 105.21657715 53.80834961 105.21118164 C52.86411133 105.20795898 51.91987305 105.20473633 50.94702148 105.20141602 C49.95379883 105.19303711 48.96057617 105.1846582 47.93725586 105.17602539 C46.94016602 105.17151367 45.94307617 105.16700195 44.91577148 105.16235352 C42.44370737 105.15052546 39.97176068 105.13404388 37.49975586 105.11352539 C36.86715262 103.47059949 36.24415037 101.82397648 35.62475586 100.17602539 C35.27670898 99.25950195 34.92866211 98.34297852 34.57006836 97.39868164 C33.26250165 93.38531084 32.41542022 89.23401501 31.49975586 85.11352539 C17.96975586 85.44352539 4.43975586 85.77352539 -9.50024414 86.11352539 C-11.81024414 92.38352539 -14.12024414 98.65352539 -16.50024414 105.11352539 C-19.9794615 105.1403574 -23.45847453 105.16028209 -26.93774414 105.17602539 C-28.42757812 105.18859375 -28.42757812 105.18859375 -29.94750977 105.20141602 C-30.89174805 105.20463867 -31.83598633 105.20786133 -32.80883789 105.21118164 C-33.68338623 105.21641846 -34.55793457 105.22165527 -35.45898438 105.22705078 C-37.50024414 105.11352539 -37.50024414 105.11352539 -38.50024414 104.11352539 C-38.1311016 96.53548262 -35.52994185 89.77743695 -33.01196289 82.67602539 C-32.55170907 81.36074073 -32.09208731 80.04523474 -31.63305664 78.72952271 C-30.41248099 75.23831368 -29.18152142 71.75085615 -27.94784164 68.26425934 C-27.18770436 66.11341283 -26.43055231 63.96153982 -25.67446899 61.80926514 C-19.9710124 45.57391818 -14.23857263 29.34835874 -8.18774414 13.23852539 C-7.94389984 12.58835449 -7.70005554 11.93818359 -7.44882202 11.26831055 C-3.26347257 0.14818033 -3.26347257 0.14818033 0 0 Z "
        fill="#0677DE" transform="translate(548.500244140625,96.886474609375)" />
    <path
        d="M0 0 C1.11696762 0.00222061 2.23393524 0.00444122 3.38475037 0.00672913 C4.64598221 0.00680466 5.90721405 0.00688019 7.20666504 0.00695801 C8.59341979 0.01206542 9.98017414 0.01728142 11.3669281 0.02259827 C12.77797394 0.0244625 14.18902042 0.02588638 15.60006714 0.02688599 C19.3204272 0.03071072 23.04074845 0.04054062 26.76109314 0.05158997 C30.55482966 0.06180504 34.34857243 0.06638381 38.14231873 0.07142639 C45.59090621 0.08216294 53.03945365 0.09975937 60.48802185 0.12025452 C60.48802185 6.72025452 60.48802185 13.32025452 60.48802185 20.12025452 C46.82679908 21.40601666 33.19762966 21.20927794 19.48802185 21.12025452 C19.48802185 28.05025452 19.48802185 34.98025452 19.48802185 42.12025452 C31.69802185 42.12025452 43.90802185 42.12025452 56.48802185 42.12025452 C56.50864685 45.23462952 56.52927185 48.34900452 56.55052185 51.55775452 C56.55962585 52.54058411 56.56872986 53.5234137 56.57810974 54.536026 C56.5806073 55.30503235 56.58310486 56.0740387 56.5856781 56.86634827 C56.59091492 57.65710754 56.59615173 58.44786682 56.60154724 59.2625885 C56.48802185 61.12025452 56.48802185 61.12025452 55.48802185 62.12025452 C52.82176155 62.20880612 50.18155071 62.23550125 47.5153656 62.21791077 C46.71772293 62.21649582 45.92008026 62.21508087 45.0982666 62.21362305 C42.5406475 62.20800768 39.98311467 62.19545264 37.42552185 62.18275452 C35.6957054 62.17774149 33.96588759 62.17317824 32.23606873 62.16908264 C27.98665946 62.15888243 23.73743769 62.13931019 19.48802185 62.12025452 C19.48802185 69.38025452 19.48802185 76.64025452 19.48802185 84.12025452 C22.58048279 84.10865295 25.67294373 84.09705139 28.8591156 84.08509827 C31.84096677 84.0773085 34.82281682 84.07123128 37.80467224 84.06532288 C39.88345341 84.06028163 41.96223101 84.05344877 44.04100037 84.04481506 C47.02204771 84.03274029 50.00304834 84.02702428 52.9841156 84.02259827 C54.38723244 84.01485634 54.38723244 84.01485634 55.81869507 84.00695801 C56.67951187 84.00688248 57.54032867 84.00680695 58.42723083 84.00672913 C59.1889006 84.00450851 59.95057037 84.0022879 60.73532104 84 C62.48802185 84.12025452 62.48802185 84.12025452 63.48802185 85.12025452 C63.58662316 86.52374187 63.61881122 87.93205929 63.62083435 89.33900452 C63.62212341 90.1884967 63.62341248 91.03798889 63.6247406 91.91322327 C63.62087341 92.80654358 63.61700623 93.69986389 63.61302185 94.62025452 C63.61688904 95.51357483 63.62075623 96.40689514 63.6247406 97.32728577 C63.62345154 98.17677795 63.62216248 99.02627014 63.62083435 99.90150452 C63.61970642 100.68589905 63.61857849 101.47029358 63.61741638 102.27845764 C63.48802185 104.12025452 63.48802185 104.12025452 62.48802185 105.12025452 C60.50458985 105.22481272 58.51740944 105.25881056 56.53123474 105.26551819 C55.25643753 105.27189804 53.98164032 105.27827789 52.66821289 105.28485107 C51.26570168 105.28637963 49.86318996 105.28749366 48.4606781 105.28822327 C47.03200242 105.29143416 45.60332707 105.29479811 44.1746521 105.29830933 C41.1759922 105.3043069 38.17736115 105.30614859 35.17869568 105.30555725 C31.33044236 105.3054556 27.48237345 105.31910749 23.63416386 105.33632946 C20.68226263 105.34743158 17.73040623 105.34947701 14.77848625 105.34894753 C13.35946962 105.35013036 11.94045194 105.35456906 10.52145576 105.36227989 C8.53906236 105.37204306 6.55661519 105.36794704 4.57420349 105.36317444 C2.87995995 105.36531197 2.87995995 105.36531197 1.15148926 105.36749268 C-1.51197815 105.12025452 -1.51197815 105.12025452 -3.51197815 103.12025452 C-3.76086712 101.28398037 -3.76086712 101.28398037 -3.75921631 99.01416016 C-3.76550804 97.72483833 -3.76550804 97.72483833 -3.77192688 96.4094696 C-3.76630737 95.46445587 -3.76068787 94.51944214 -3.75489807 93.54579163 C-3.75679642 92.55224167 -3.75869476 91.55869171 -3.76065063 90.53503418 C-3.76436623 87.23914286 -3.75364374 83.94347012 -3.7424469 80.64759827 C-3.74125552 78.36598741 -3.74080185 76.08437605 -3.74105835 73.80276489 C-3.73949217 69.01688068 -3.73119169 64.23107112 -3.7177887 59.44520569 C-3.70078908 53.29551909 -3.69697454 47.14591457 -3.69773388 40.99620724 C-3.69746261 36.28406992 -3.69198845 31.57195072 -3.68473244 26.85981941 C-3.68153948 24.59149373 -3.67957691 22.32316599 -3.67883873 20.05483818 C-3.67668233 16.89163045 -3.66795361 13.72851166 -3.65724182 10.56532288 C-3.65769501 9.61828491 -3.65814819 8.67124695 -3.65861511 7.69551086 C-3.62116813 0.17335414 -3.62116813 0.17335414 0 0 Z "
        fill="#087ADE" transform="translate(1050.511978149414,96.87974548339844)" />
    <path
        d="M0 0 C8.7367371 7.58716643 8.7367371 7.58716643 11.234375 12.8203125 C11.26953125 15.25 11.26953125 15.25 10.234375 17.8203125 C7.77480697 19.39803541 5.63133673 20.54879424 2.984375 21.6953125 C1.98083984 22.17484375 1.98083984 22.17484375 0.95703125 22.6640625 C-1.99769885 23.99920577 -4.34082635 24.83494055 -7.6015625 24.72265625 C-10.13351935 23.66691251 -10.79912115 22.86300911 -12.140625 20.5078125 C-15.79218175 14.92173196 -21.32141089 12.33659817 -27.765625 10.8203125 C-36.12846306 10.00407659 -43.72483032 11.20538157 -50.515625 16.3828125 C-56.33366061 21.78140833 -59.51999608 29.54070102 -59.96875 37.359375 C-60.19928796 49.27585292 -58.99753191 59.50429285 -50.765625 68.8203125 C-43.22917751 74.80094034 -36.22580941 75.56461435 -26.765625 74.8203125 C-18.88597657 73.11396105 -14.45669875 69.19121372 -9.765625 62.8203125 C-9.20746094 62.0778125 -8.64929688 61.3353125 -8.07421875 60.5703125 C-7.64238281 59.9928125 -7.21054687 59.4153125 -6.765625 58.8203125 C-2.21246552 59.43842784 1.51897267 61.28797143 5.546875 63.3828125 C6.19205078 63.71216797 6.83722656 64.04152344 7.50195312 64.38085938 C9.08222728 65.18855505 10.65869605 66.00368863 12.234375 66.8203125 C11.40320631 75.1826804 7.98027617 79.54485418 1.74609375 84.99609375 C-11.32100533 95.03752589 -24.55423415 97.88997905 -40.765625 96.8203125 C-54.62568499 94.91858334 -66.21989905 87.15578761 -74.80859375 76.21875 C-84.21393632 62.30124948 -86.70045745 46.32950397 -83.703125 29.9453125 C-80.10382376 14.55872615 -72.03484259 3.38582123 -58.765625 -5.1796875 C-40.26473387 -15.57688251 -16.46960888 -12.98028497 0 0 Z "
        fill="#0778DE" transform="translate(773.765625,106.1796875)" />
    <path
        d="M0 0 C21.12 0 42.24 0 64 0 C65.57924842 3.15849685 65.14316514 6.5365128 65.125 10 C65.12886719 10.73734375 65.13273437 11.4746875 65.13671875 12.234375 C65.1266598 17.7466804 65.1266598 17.7466804 64 20 C50.14 20 36.28 20 22 20 C22 27.26 22 34.52 22 42 C25.98900391 41.98259766 25.98900391 41.98259766 30.05859375 41.96484375 C32.62345256 41.95705348 35.18831007 41.95097655 37.75317383 41.94506836 C39.54094021 41.94002782 41.32870245 41.93319546 43.11645508 41.92456055 C45.68051168 41.9124827 48.24451397 41.90676906 50.80859375 41.90234375 C51.6127623 41.89718246 52.41693085 41.89202118 53.24546814 41.88670349 C55.16401715 41.88650785 57.08245368 41.93798017 59 42 C60 43 60 43 60.11352539 44.76586914 C60.10828857 45.51473389 60.10305176 46.26359863 60.09765625 47.03515625 C60.09443359 47.84404297 60.09121094 48.65292969 60.08789062 49.48632812 C60.07532227 50.7615332 60.07532227 50.7615332 60.0625 52.0625 C60.05798828 52.91650391 60.05347656 53.77050781 60.04882812 54.65039062 C60.03700373 56.76695663 60.01906769 58.88348685 60 61 C56.82709287 62.58645357 53.41174616 62.12078213 49.9296875 62.09765625 C49.13345978 62.0962413 48.33723206 62.09482635 47.51687622 62.09336853 C44.9695462 62.08776345 42.42230353 62.07521014 39.875 62.0625 C38.14974085 62.05748565 36.42448033 62.05292263 34.69921875 62.04882812 C30.46608496 62.03864253 26.23314046 62.0190682 22 62 C22 69.26 22 76.52 22 84 C25.08085937 83.98839844 28.16171875 83.97679687 31.3359375 83.96484375 C34.31119687 83.95705085 37.28645511 83.95097541 40.26171875 83.94506836 C42.33366401 83.94003148 44.4056057 83.93320175 46.47753906 83.92456055 C49.45118082 83.91246679 52.42477569 83.90676533 55.3984375 83.90234375 C56.32868744 83.89718246 57.25893738 83.89202118 58.21737671 83.88670349 C59.07811798 83.88662796 59.93885925 83.88655243 60.82568359 83.88647461 C61.58513275 83.884254 62.34458191 83.88203339 63.12704468 83.87974548 C65 84 65 84 67 85 C67.02888514 88.14581423 67.04675923 91.29159469 67.0625 94.4375 C67.07087891 95.33533203 67.07925781 96.23316406 67.08789062 97.15820312 C67.09111328 98.01220703 67.09433594 98.86621094 67.09765625 99.74609375 C67.10289307 100.53685303 67.10812988 101.3276123 67.11352539 102.14233398 C67 104 67 104 66 105 C64.01671573 105.10981194 62.02949856 105.1491169 60.04321289 105.16113281 C58.76841568 105.17074036 57.49361847 105.1803479 56.18019104 105.19024658 C54.77768125 105.19509366 53.3751694 105.19937271 51.97265625 105.203125 C50.54398088 105.20887365 49.11530555 105.21463141 47.68663025 105.22039795 C44.68797444 105.23091616 41.6893455 105.23675356 38.69067383 105.24023438 C34.84234191 105.24572342 30.99436306 105.2697563 27.14614201 105.29820633 C24.19423881 105.31680043 21.24242123 105.32203655 18.2904644 105.32357025 C16.87143458 105.32660424 15.45240653 105.33465779 14.03343391 105.34775543 C12.0510872 105.36474808 10.06859572 105.36110076 8.08618164 105.35644531 C6.95668594 105.36009094 5.82719025 105.36373657 4.66346741 105.36749268 C3.78452316 105.24622009 2.90557892 105.12494751 2 105 C-0.06556043 101.90165936 -0.24912227 101.26820095 -0.24050903 97.766922 C-0.24325836 96.90455429 -0.24600769 96.04218658 -0.24884033 95.15368652 C-0.24164978 94.21069702 -0.23445923 93.26770752 -0.22705078 92.29614258 C-0.22734283 91.3008403 -0.22763489 90.30553802 -0.22793579 89.28007507 C-0.22654061 85.98480562 -0.21097038 82.68976128 -0.1953125 79.39453125 C-0.19158304 77.11195499 -0.18873575 74.82937714 -0.18673706 72.54679871 C-0.17909531 66.53471468 -0.1594421 60.52272705 -0.1373291 54.51068115 C-0.1132884 47.29954267 -0.10409228 40.08837197 -0.09242249 32.8772049 C-0.07301809 21.91806952 -0.03469914 10.95914573 0 0 Z "
        fill="#0577DE" transform="translate(431,97)" />
    <path
        d="M0 0 C0.80515045 -0.00287018 1.6103009 -0.00574036 2.43984985 -0.00869751 C4.14284976 -0.01073836 5.8458731 -0.00520696 7.54882812 0.00732422 C10.14767352 0.02333652 12.7449539 0.00749874 15.34375 -0.01171875 C17.00000342 -0.0097355 18.65625587 -0.00589014 20.3125 0 C21.08661224 -0.00607269 21.86072449 -0.01214539 22.65829468 -0.0184021 C27.21999487 0.04063337 30.15987886 0.58409793 33.7890625 3.3984375 C35.80859375 5.80859375 35.80859375 5.80859375 37.6015625 8.4609375 C38.20613281 9.33878906 38.81070313 10.21664062 39.43359375 11.12109375 C40.7890625 13.3984375 40.7890625 13.3984375 40.7890625 15.3984375 C43.53379783 16.31334928 45.32345445 16.55854319 48.1652832 16.63891602 C49.0466243 16.66466202 49.92796539 16.69040802 50.83601379 16.7169342 C54.86114799 16.80139787 58.88610987 16.86692816 62.91186523 16.91333008 C65.0332624 16.94499272 67.15448201 16.99277052 69.27514648 17.05688477 C72.33905321 17.14821298 75.3997809 17.18694972 78.46484375 17.21484375 C79.88075554 17.27207359 79.88075554 17.27207359 81.32527161 17.33045959 C86.48645642 17.33985944 86.48645642 17.33985944 90.68882751 14.63311768 C92.19797373 12.61525687 93.49205824 10.55582817 94.7890625 8.3984375 C100.35782764 3.00662377 105.91470632 0.71088558 113.6640625 0.0859375 C121.9495639 0.38926029 127.88889895 3.46005938 133.8359375 9.16796875 C138.99537626 15.06004782 140.45381291 21.01651945 140.09765625 28.765625 C139.11998368 37.10678087 135.35405357 42.21071728 128.7890625 47.3984375 C121.95234224 51.77590587 115.32367769 52.42813335 107.4375 50.9609375 C100.1069759 48.94567314 94.60814067 44.26903887 90.2890625 38.0859375 C88.7890625 35.3984375 88.7890625 35.3984375 88.7890625 33.3984375 C82.61381561 33.44260352 76.43958986 33.51245213 70.26489258 33.60595703 C68.16504042 33.63415602 66.06508233 33.65537587 63.96508789 33.66943359 C60.94362191 33.69087764 57.92342816 33.73753617 54.90234375 33.7890625 C53.96570389 33.79029114 53.02906403 33.79151978 52.06404114 33.79278564 C47.82126969 33.88779787 45.42593026 33.99932822 41.76513672 36.29345703 C39.75740046 38.43216497 38.15333395 40.53561089 36.6015625 43.0234375 C35.08662751 45.42974585 33.80483249 47.38266751 31.7890625 49.3984375 C28.91279421 49.62351134 26.16453226 49.72274156 23.2890625 49.7109375 C22.50402344 49.72705078 21.71898437 49.74316406 20.91015625 49.75976562 C18.6328125 49.76171875 18.6328125 49.76171875 14.7890625 49.3984375 C12.6371188 46.17052195 12.58819807 45.11442941 12.7890625 41.3984375 C11.95713379 41.41414795 11.95713379 41.41414795 11.10839844 41.43017578 C8.58533291 41.47185754 6.06233997 41.49780188 3.5390625 41.5234375 C2.23001953 41.54857422 2.23001953 41.54857422 0.89453125 41.57421875 C0.05019531 41.58066406 -0.79414062 41.58710937 -1.6640625 41.59375 C-2.43911133 41.60422363 -3.21416016 41.61469727 -4.01269531 41.62548828 C-6.51001599 41.36754645 -8.08933417 40.72604156 -10.2109375 39.3984375 C-11.76868686 36.28293878 -11.77574372 32.7939987 -11.2109375 29.3984375 C-9.57014773 27.25236055 -8.68227547 26.48010292 -5.99023438 26.01367188 C-5.14525391 26.00658203 -4.30027344 25.99949219 -3.4296875 25.9921875 C-2.04330078 25.95931641 -2.04330078 25.95931641 -0.62890625 25.92578125 C1.31640625 25.90755208 3.26171875 25.88932292 5.20703125 25.87109375 C6.59341797 25.83822266 6.59341797 25.83822266 8.0078125 25.8046875 C8.85279297 25.79759766 9.69777344 25.79050781 10.56835938 25.78320312 C13.26686519 25.31565199 14.19050097 24.59547526 15.7890625 22.3984375 C15.54453126 19.05651058 15.18362693 17.79300193 12.7890625 15.3984375 C10.49625922 15.06072274 10.49625922 15.06072274 7.8515625 15.0546875 C6.87445313 15.02503906 5.89734375 14.99539062 4.890625 14.96484375 C3.86710937 14.94292969 2.84359375 14.92101562 1.7890625 14.8984375 C-0.23197872 14.85516584 -2.25286306 14.80349781 -4.2734375 14.7421875 C-5.17191406 14.72349609 -6.07039063 14.70480469 -6.99609375 14.68554688 C-9.2109375 14.3984375 -9.2109375 14.3984375 -11.2109375 12.3984375 C-11.51171875 10.33984375 -11.51171875 10.33984375 -11.5234375 7.9609375 C-11.54019531 7.17847656 -11.55695312 6.39601563 -11.57421875 5.58984375 C-11.2109375 3.3984375 -11.2109375 3.3984375 -10.20141602 1.78637695 C-7.06114372 -0.40330145 -3.69386238 -0.02882655 0 0 Z "
        fill="#0677DE" transform="translate(66.2109375,78.6015625)" />
    <path
        d="M0 0 C4.21090978 4.09253079 7.97033592 8.41842379 10 14 C9.984375 15.99609375 9.984375 15.99609375 9 18 C6.015625 19.51953125 6.015625 19.51953125 2.25 20.8125 C1.01765625 21.25207031 -0.2146875 21.69164063 -1.484375 22.14453125 C-4.91384774 22.97903628 -6.72661601 23.25299864 -10 22 C-10.680625 20.576875 -10.680625 20.576875 -11.375 19.125 C-13.1265418 15.75665039 -14.41482794 14.73113693 -17.9765625 13.46875 C-24.6110779 11.93179663 -30.07579568 12.73564252 -36 16 C-38.11212504 19.16818756 -38.33156464 21.13219252 -38.55859375 24.8671875 C-37.66476929 28.27997179 -35.66756786 29.77401054 -33 32 C-29.90482653 33.51597602 -29.90482653 33.51597602 -26.5 34.5625 C-24.65341797 35.18511719 -24.65341797 35.18511719 -22.76953125 35.8203125 C-19.25660553 36.91969443 -15.727778 37.93074644 -12.1875 38.9375 C-6.31152085 40.70530371 -1.83833535 43.27742333 3 47 C3.928125 47.639375 4.85625 48.27875 5.8125 48.9375 C10.3724417 53.2368736 12.68299615 58.45579303 13.23828125 64.6640625 C13.49336866 74.84070761 11.18767575 82.67239393 4.12109375 90.1796875 C-4.31976547 97.42359246 -14.00243724 100.36073481 -24.9375 100.25 C-25.69740234 100.25773437 -26.45730469 100.26546875 -27.24023438 100.2734375 C-37.44220421 100.23858876 -46.86725657 97.22025571 -54.8125 90.6875 C-59.03517793 85.49963855 -62.48527012 80.86306511 -63 74 C-56.54031293 70.39748221 -50.20773928 68.58570264 -43 67 C-41.33273017 69.15737387 -39.95001354 71.10247225 -38.75 73.5625 C-36.37926914 76.86458942 -33.85778246 78.09845301 -30 79 C-23.31936513 79.7171858 -17.86542446 79.36949916 -12 76 C-9.88035319 72.82052979 -9.70773219 72.17322527 -10 68.5625 C-10.04125 67.80066406 -10.0825 67.03882813 -10.125 66.25390625 C-11.45607953 62.825188 -13.80143361 61.50215599 -17 60 C-21.67461796 58.36085421 -26.45729015 57.10774278 -31.23828125 55.8203125 C-38.23136292 53.83018649 -43.96311037 51.04239066 -50 47 C-50.58338135 46.62536621 -51.1667627 46.25073242 -51.76782227 45.86474609 C-56.62585291 42.35885579 -59.27747108 37.62011553 -61 32 C-62.26531035 22.5101724 -61.34481854 14.98615329 -56 7 C-55.4225 6.0925 -54.845 5.185 -54.25 4.25 C-39.94895179 -10.05104821 -16.13361942 -12.98722891 0 0 Z "
        fill="#0778DE" transform="translate(1190,103)" />
    <path
        d="M0 0 C1.40958984 -0.00193359 1.40958984 -0.00193359 2.84765625 -0.00390625 C3.83636719 -0.00003906 4.82507813 0.00382812 5.84375 0.0078125 C7.32681641 0.00201172 7.32681641 0.00201172 8.83984375 -0.00390625 C9.77957031 -0.00261719 10.71929688 -0.00132813 11.6875 0 C12.55568359 0.00112793 13.42386719 0.00225586 14.31835938 0.00341797 C16.34375 0.1328125 16.34375 0.1328125 17.34375 1.1328125 C17.43882821 3.71920288 17.46931376 6.2787981 17.45727539 8.86547852 C17.45742142 9.6751709 17.45756744 10.48486328 17.4577179 11.3190918 C17.45701854 14.00832758 17.4492251 16.69749499 17.44140625 19.38671875 C17.43954215 21.24616966 17.43811821 23.10562106 17.43711853 24.96507263 C17.43329271 29.86910346 17.42346188 34.77310486 17.41241455 39.67712402 C17.40220181 44.67732342 17.39762121 49.67752756 17.39257812 54.67773438 C17.38183967 64.49610671 17.36476248 74.31445716 17.34375 84.1328125 C18.97171509 84.12495728 18.97171509 84.12495728 20.63256836 84.11694336 C24.64492982 84.09889414 28.65728767 84.08738079 32.66967773 84.07788086 C34.40894168 84.07284046 36.14820136 84.0660082 37.88745117 84.05737305 C40.38200937 84.04529458 42.87651173 84.03958142 45.37109375 84.03515625 C46.15338852 84.02999496 46.93568329 84.02483368 47.74168396 84.01951599 C49.60942114 84.01932024 51.47704204 84.07081556 53.34375 84.1328125 C54.34375 85.1328125 54.34375 85.1328125 54.38134766 86.97460938 C54.34058105 87.75900391 54.29981445 88.54339844 54.2578125 89.3515625 C54.21398437 90.20105469 54.17015625 91.05054688 54.125 91.92578125 C54.0734375 92.81910156 54.021875 93.71242188 53.96875 94.6328125 C53.92492187 95.52613281 53.88109375 96.41945313 53.8359375 97.33984375 C53.47184741 104.00471509 53.47184741 104.00471509 52.34375 105.1328125 C50.56928991 105.23175028 48.79088749 105.26080342 47.01367188 105.26220703 C45.87579224 105.26535919 44.7379126 105.26851135 43.56555176 105.27175903 C42.32704468 105.2697348 41.0885376 105.26771057 39.8125 105.265625 C38.55111206 105.26658173 37.28972412 105.26753845 35.9901123 105.26852417 C33.31677862 105.26920625 30.64353563 105.26784779 27.97021484 105.26318359 C24.53668309 105.25748631 21.1032295 105.26076551 17.66970062 105.26675606 C14.40479757 105.27123012 11.13990407 105.26810133 7.875 105.265625 C6.63649292 105.26764923 5.39798584 105.26967346 4.12194824 105.27175903 C2.9840686 105.26860687 1.84618896 105.26545471 0.67382812 105.26220703 C-0.33353394 105.26141144 -1.340896 105.26061584 -2.37878418 105.25979614 C-4.65625 105.1328125 -4.65625 105.1328125 -5.65625 104.1328125 C-5.75367068 102.79441777 -5.78256559 101.45094425 -5.78323364 100.10900879 C-5.78605347 99.24242142 -5.78887329 98.37583405 -5.79177856 97.48298645 C-5.78975433 96.5250267 -5.7877301 95.56706696 -5.78564453 94.58007812 C-5.78739685 93.57692062 -5.78914917 92.57376312 -5.79095459 91.54020691 C-5.79537516 88.20647478 -5.79243439 84.87279521 -5.7890625 81.5390625 C-5.78973548 79.23360178 -5.79070545 76.92814114 -5.79196167 74.62268066 C-5.79343892 69.78376593 -5.79128321 64.94486963 -5.78662109 60.10595703 C-5.7809238 53.88786605 -5.78420266 47.66981822 -5.79019356 41.45172882 C-5.79379843 36.68898185 -5.79266092 31.9262452 -5.79006577 27.16349792 C-5.78939629 24.87005101 -5.79022562 22.57660318 -5.79254532 20.28315735 C-5.79507064 17.08392844 -5.79123295 13.88477047 -5.78564453 10.68554688 C-5.78766876 9.72758713 -5.78969299 8.76962738 -5.79177856 7.78263855 C-5.78895874 6.91605118 -5.78613892 6.04946381 -5.78323364 5.15661621 C-5.78285662 4.3992794 -5.78247959 3.6419426 -5.78209114 2.86165619 C-5.51829519 -0.76245245 -3.05984401 0.0039753 0 0 Z "
        fill="#0576DD" transform="translate(627.65625,96.8671875)" />
    <path
        d="M0 0 C7.5688192 3.86408138 13.42887883 10.54862779 16.7265625 18.32421875 C20.20331416 29.34165847 19.09673054 41.03375057 14.1953125 51.375 C10.29661455 58.36894802 4.73980718 62.59886144 -2.8359375 65.07421875 C-10.56266468 67.05000287 -17.52600896 66.60217183 -24.7734375 63.19921875 C-33.18182404 57.26388707 -38.28447808 50.5432844 -40.453125 40.44921875 C-42.01481952 29.47926697 -40.41736664 19.10090879 -34.0859375 9.82421875 C-25.66798869 -0.46199932 -12.60930708 -3.64071542 0 0 Z "
        fill="#FCFDFE" transform="translate(859.7734375,116.80078125)" />
    <path
        d="M0 0 C2.25981625 3.38972437 3.48849564 6.84711975 4.8203125 10.66015625 C5.21559647 11.77867226 5.21559647 11.77867226 5.61886597 12.91978455 C6.17387629 14.49341889 6.72681798 16.06778416 7.27783203 17.64282227 C8.12370097 20.05878971 8.97736635 22.47189771 9.83203125 24.88476562 C10.37025798 26.41389845 10.90803393 27.94319002 11.4453125 29.47265625 C11.70152374 30.19663101 11.95773499 30.92060577 12.22171021 31.66651917 C14 36.76932614 14 36.76932614 14 39 C5.09 39 -3.82 39 -13 39 C-9.61915674 26.6035747 -9.61915674 26.6035747 -7.7734375 21.0546875 C-7.3815625 19.87648437 -6.9896875 18.69828125 -6.5859375 17.484375 C-6.18632813 16.29328125 -5.78671875 15.1021875 -5.375 13.875 C-4.96765625 12.64523438 -4.5603125 11.41546875 -4.140625 10.1484375 C-3.75132812 8.983125 -3.36203125 7.8178125 -2.9609375 6.6171875 C-2.60821777 5.56128418 -2.25549805 4.50538086 -1.89208984 3.41748047 C-1 1 -1 1 0 0 Z "
        fill="#FAFCFE" transform="translate(559,123)" />
    <path
        d="M0 0 C12.21 0 24.42 0 37 0 C37.020625 3.114375 37.04125 6.22875 37.0625 9.4375 C37.071604 10.42032959 37.08070801 11.40315918 37.09008789 12.41577148 C37.09258545 13.18477783 37.09508301 13.95378418 37.09765625 14.74609375 C37.10289307 15.53685303 37.10812988 16.3276123 37.11352539 17.14233398 C37 19 37 19 36 20 C33.3337397 20.08855161 30.69352886 20.11524673 28.02734375 20.09765625 C27.22970108 20.0962413 26.43205841 20.09482635 25.61024475 20.09336853 C23.05262565 20.08775316 20.49509282 20.07519812 17.9375 20.0625 C16.20768355 20.05748698 14.47786574 20.05292373 12.74804688 20.04882812 C8.49863761 20.03862791 4.24941584 20.01905568 0 20 C0 27.26 0 34.52 0 42 C3.09246094 41.98839844 6.18492188 41.97679687 9.37109375 41.96484375 C12.35294492 41.95705399 15.33479497 41.95097677 18.31665039 41.94506836 C20.39543156 41.94002712 22.47420916 41.93319426 24.55297852 41.92456055 C27.53402586 41.91248578 30.51502649 41.90676976 33.49609375 41.90234375 C34.89921059 41.89460182 34.89921059 41.89460182 36.33067322 41.88670349 C37.19149002 41.88662796 38.05230682 41.88655243 38.93920898 41.88647461 C39.70087875 41.884254 40.46254852 41.88203339 41.24729919 41.87974548 C43 42 43 42 44 43 C44.09860131 44.40348735 44.13078937 45.81180477 44.1328125 47.21875 C44.13474609 48.49298828 44.13474609 48.49298828 44.13671875 49.79296875 C44.13285156 50.68628906 44.12898438 51.57960937 44.125 52.5 C44.13080078 53.83998047 44.13080078 53.83998047 44.13671875 55.20703125 C44.13542969 56.05652344 44.13414063 56.90601563 44.1328125 57.78125 C44.13168457 58.56564453 44.13055664 59.35003906 44.12939453 60.15820312 C44 62 44 62 43 63 C41.06693502 63.09396057 39.13041162 63.11743517 37.19506836 63.11352539 C35.33325172 63.11341209 35.33325172 63.11341209 33.43382263 63.11329651 C32.0691626 63.10818911 30.70450298 63.1029731 29.33984375 63.09765625 C27.95121817 63.095792 26.56259193 63.09436813 25.17396545 63.09336853 C21.51278885 63.08954387 17.8516517 63.07971403 14.19049072 63.06866455 C10.45707737 63.05844932 6.72365766 63.05387067 2.99023438 63.04882812 C-4.33986177 63.03809171 -11.66992536 63.02101591 -19 63 C-19 62.67 -19 62.34 -19 62 C-5.44500007 61.06578983 8.04121664 60.87679675 21.625 60.9375 C23.61458219 60.9425324 25.60416563 60.94709218 27.59375 60.95117188 C32.39589109 60.96115969 37.19785214 60.9807572 42 61 C42 55.06 42 49.12 42 43 C41.01 43.495 41.01 43.495 40 44 C37.0337986 44.11141981 34.09178486 44.16412243 31.125 44.16796875 C30.24473145 44.17129715 29.36446289 44.17462555 28.45751953 44.17805481 C26.59473189 44.18312167 24.73193515 44.18546321 22.86914062 44.18530273 C20.01156774 44.18749114 17.15437963 44.20565453 14.296875 44.22460938 C12.48958466 44.2275429 10.68229248 44.22952797 8.875 44.23046875 C8.01664551 44.23765427 7.15829102 44.24483978 6.27392578 44.25224304 C0.22882579 44.22882579 0.22882579 44.22882579 -2 42 C-2.25878906 39.78515625 -2.25878906 39.78515625 -2.265625 37.0625 C-2.26949219 35.59683594 -2.26949219 35.59683594 -2.2734375 34.1015625 C-2.26570313 33.07804687 -2.25796875 32.05453125 -2.25 31 C-2.25773437 29.97648437 -2.26546875 28.95296875 -2.2734375 27.8984375 C-2.27085938 26.92132813 -2.26828125 25.94421875 -2.265625 24.9375 C-2.26336914 24.03902344 -2.26111328 23.14054687 -2.25878906 22.21484375 C-2 20 -2 20 0 18 C2.72485728 17.82482253 5.34659362 17.76850867 8.0703125 17.8046875 C8.86654022 17.8075174 9.66276794 17.81034729 10.48312378 17.81326294 C13.03056763 17.8244736 15.57766211 17.84957938 18.125 17.875 C19.85025535 17.88502867 21.57551619 17.89415472 23.30078125 17.90234375 C27.53409762 17.92271582 31.76665695 17.96186177 36 18 C36 12.39 36 6.78 36 1 C24.12 1 12.24 1 0 1 C0 0.67 0 0.34 0 0 Z "
        fill="#0365DB" transform="translate(1070,139)" />
    <path
        d="M0 0 C0.66 0.33 1.32 0.66 2 1 C0.35182607 4.37674659 -1.33438593 7.32917965 -4 10 C-7.45459085 10.78653631 -10.51969146 10.55712449 -14 10 C-14 9.67 -14 9.34 -14 9 C-9.545 8.505 -9.545 8.505 -5 8 C-4.67 6.68 -4.34 5.36 -4 4 C-3.01 4 -2.02 4 -1 4 C-0.67 2.68 -0.34 1.36 0 0 Z "
        fill="#075FD9" transform="translate(981,172)" />
    <path
        d="M0 0 C2.64 0 5.28 0 8 0 C8 0.33 8 0.66 8 1 C10.64 1.33 13.28 1.66 16 2 C16 2.33 16 2.66 16 3 C10.72 3 5.44 3 0 3 C0 2.01 0 1.02 0 0 Z "
        fill="#1380E0" transform="translate(841,95)" />
    <path
        d="M0 0 C3.71171927 1.23723976 5.2553349 3.2553349 8 6 C10.16620544 7.29519995 10.16620544 7.29519995 12 8 C12 8.66 12 9.32 12 10 C7.15853891 8.53289058 3.44051028 5.6487256 0 2 C0 1.34 0 0.68 0 0 Z "
        fill="#146CDD" transform="translate(1134,143)" />
</svg>