<?xml version="1.0" encoding="UTF-8"?>
<svg version="1.1" xmlns="http://www.w3.org/2000/svg" width="396" height="396">
    <path
        d="M0 0 C130.68 0 261.36 0 396 0 C396 130.68 396 261.36 396 396 C265.32 396 134.64 396 0 396 C0 265.32 0 134.64 0 0 Z "
        fill="transparent" transform="translate(0,0)" />
    <path
        d="M0 0 C1.25329102 -0.00287018 2.50658203 -0.00574036 3.79785156 -0.00869751 C7.10872351 -0.0112487 10.41916547 0.00073123 13.72998047 0.01757812 C15.74850998 0.02343318 17.76664822 0.01759528 19.78515625 0.00732422 C23.69028615 -0.01128527 27.59484545 -0.00894325 31.5 0 C32.69399414 -0.00607269 33.88798828 -0.01214539 35.11816406 -0.0184021 C43.11236239 0.04841071 49.78322598 0.89764518 56.625 5.2109375 C59.6903504 8.36644526 61.63797582 11.18413226 61.8659668 15.69067383 C61.85218994 16.48755615 61.83841309 17.28443848 61.82421875 18.10546875 C61.80814575 19.31360229 61.80814575 19.31360229 61.79174805 20.54614258 C61.77797119 21.1573999 61.76419434 21.76865723 61.75 22.3984375 C62.3903569 22.39621689 63.03071381 22.39399628 63.69047546 22.39170837 C70.35769086 22.36957804 77.02489581 22.35449848 83.69213867 22.34350586 C86.18009871 22.33847837 88.6680558 22.33165548 91.15600586 22.32299805 C94.73291757 22.31086324 98.3097902 22.30519331 101.88671875 22.30078125 C103.55416389 22.29303932 103.55416389 22.29303932 105.2552948 22.28514099 C106.81634697 22.28502769 106.81634697 22.28502769 108.40893555 22.28491211 C109.3216069 22.2826915 110.23427826 22.28047089 111.17460632 22.27818298 C113.79132687 22.4003672 116.19899974 22.81796962 118.75 23.3984375 C118.75 24.0584375 118.75 24.7184375 118.75 25.3984375 C120.6990625 25.7078125 120.6990625 25.7078125 122.6875 26.0234375 C132.94079054 28.33403818 143.05960124 36.90317388 148.75 45.5859375 C150.4049203 48.46925226 151.43561029 51.04494727 151.75 54.3984375 C152.41 54.3984375 153.07 54.3984375 153.75 54.3984375 C156.94454337 65.19837482 157.17882273 75.32534777 157.13818359 86.49243164 C157.14225669 88.38618776 157.14760269 90.27994149 157.15411377 92.1736908 C157.16770447 97.28106194 157.16252325 102.38824978 157.15297651 107.49562383 C157.14533805 112.86048551 157.15243698 118.22533235 157.15713501 123.5901947 C157.16257995 132.59539586 157.15543364 141.60052299 157.14111328 150.60571289 C157.12478427 160.99350254 157.13008224 171.38111554 157.1465925 181.76890093 C157.16023745 190.71451479 157.16211248 199.6600757 157.15427649 208.60569662 C157.14961714 213.93683257 157.14892717 219.26788567 157.15888596 224.59901619 C157.16759744 229.61178738 157.16145777 234.62433231 157.14420319 239.63707924 C157.1402608 241.46874874 157.14133349 243.30043751 157.14799118 245.13209915 C157.18047597 254.98283392 156.85860481 263.92523817 153.75 273.3984375 C153.09 273.3984375 152.43 273.3984375 151.75 273.3984375 C151.60304688 274.49865234 151.60304688 274.49865234 151.453125 275.62109375 C150.24112158 280.40850724 146.83484533 283.64731888 143.75 287.3984375 C142.6671875 288.9453125 142.6671875 288.9453125 141.5625 290.5234375 C137.77858391 295.05904062 131.99312933 297.87396782 126.75 300.3984375 C125.76 300.3984375 124.77 300.3984375 123.75 300.3984375 C123.75 301.0584375 123.75 301.7184375 123.75 302.3984375 C112.71540732 305.34093931 102.46484543 305.83477609 91.125 305.80249023 C89.29345283 305.80820569 87.46190921 305.81517445 85.63037109 305.82328796 C80.69648101 305.84110253 75.7627699 305.84007347 70.82885742 305.83434558 C66.69387555 305.83123738 62.55892726 305.83736405 58.4239502 305.84338433 C48.66281291 305.85738886 38.90176323 305.85590166 29.140625 305.84448242 C19.10329279 305.83299888 9.0662277 305.84709024 -0.97106934 305.8738789 C-9.62204863 305.89609476 -18.27294443 305.90266023 -26.9239502 305.89680248 C-32.07631843 305.89344654 -37.2285154 305.89575711 -42.38085938 305.91305351 C-47.22708524 305.92861533 -52.07291758 305.92446551 -56.91912842 305.90574837 C-58.68707204 305.90208825 -60.45504543 305.90509478 -62.22296143 305.91563416 C-72.95131822 305.97465929 -82.08752506 305.01718736 -92.25 301.3984375 C-92.25 300.7384375 -92.25 300.0784375 -92.25 299.3984375 C-93.095625 299.1715625 -93.94125 298.9446875 -94.8125 298.7109375 C-104.73523547 294.92225668 -110.26798089 287.37417829 -115.5 278.4609375 C-115.841521 277.88802979 -116.18304199 277.31512207 -116.53491211 276.72485352 C-120.52850288 269.68511833 -121.54996693 262.89976894 -121.52415466 254.98252869 C-121.52939134 254.17364986 -121.53462802 253.36477102 -121.54002339 252.53138071 C-121.55493552 249.84110049 -121.5557266 247.15101195 -121.55639648 244.46069336 C-121.56402405 242.52328168 -121.57245257 240.58587302 -121.58161926 238.64846802 C-121.60351615 233.39809613 -121.61235706 228.14778248 -121.61744571 222.8973701 C-121.62109591 219.61133245 -121.62733952 216.3253099 -121.6344471 213.03927803 C-121.6589279 201.55848653 -121.67198989 190.07774009 -121.67553711 178.59692383 C-121.67916809 167.92351034 -121.70903575 157.25038515 -121.75094169 146.57705969 C-121.78572991 137.39201665 -121.80108705 128.20706874 -121.80178314 119.02196032 C-121.80257325 113.54580443 -121.81118848 108.06994226 -121.83978081 102.5938549 C-121.86610686 97.43660185 -121.86808599 92.27988296 -121.85212517 87.12259293 C-121.85032201 85.24057022 -121.85689765 83.35851576 -121.87294388 81.47656059 C-121.99557335 66.146903 -120.46857885 52.84043388 -109.78125 40.90625 C-95.13785047 26.3984375 -95.13785047 26.3984375 -86.25 26.3984375 C-86.25 25.7384375 -86.25 25.0784375 -86.25 24.3984375 C-79.70356461 22.43586506 -73.77872496 22.13343148 -66.96875 22.203125 C-65.91465942 22.2059549 -64.86056885 22.20878479 -63.77453613 22.21170044 C-60.4329049 22.22282764 -57.09154919 22.24791846 -53.75 22.2734375 C-51.47396222 22.28347694 -49.19792022 22.2926011 -46.921875 22.30078125 C-41.36449053 22.3227425 -35.80726496 22.35614521 -30.25 22.3984375 C-30.270625 21.3053125 -30.29125 20.2121875 -30.3125 19.0859375 C-30.25 15.3984375 -30.25 15.3984375 -29.25 12.3984375 C-28.59 12.3984375 -27.93 12.3984375 -27.25 12.3984375 C-27.1675 11.8415625 -27.085 11.2846875 -27 10.7109375 C-25.94557798 7.45980294 -24.71467907 5.80149959 -22.25 3.3984375 C-15.1722407 -0.16776511 -7.75057676 -0.03941968 0 0 Z "
        fill="transparent" transform="translate(181.25,48.6015625)" />
    <path
        d="M0 0 C1.25329102 -0.00287018 2.50658203 -0.00574036 3.79785156 -0.00869751 C7.10872351 -0.0112487 10.41916547 0.00073123 13.72998047 0.01757812 C15.74850998 0.02343318 17.76664822 0.01759528 19.78515625 0.00732422 C23.69028615 -0.01128527 27.59484545 -0.00894325 31.5 0 C32.69399414 -0.00607269 33.88798828 -0.01214539 35.11816406 -0.0184021 C43.11236239 0.04841071 49.78322598 0.89764518 56.625 5.2109375 C59.6903504 8.36644526 61.63797582 11.18413226 61.8659668 15.69067383 C61.85218994 16.48755615 61.83841309 17.28443848 61.82421875 18.10546875 C61.80814575 19.31360229 61.80814575 19.31360229 61.79174805 20.54614258 C61.77797119 21.1573999 61.76419434 21.76865723 61.75 22.3984375 C62.3903569 22.39621689 63.03071381 22.39399628 63.69047546 22.39170837 C70.35769086 22.36957804 77.02489581 22.35449848 83.69213867 22.34350586 C86.18009871 22.33847837 88.6680558 22.33165548 91.15600586 22.32299805 C94.73291757 22.31086324 98.3097902 22.30519331 101.88671875 22.30078125 C103.55416389 22.29303932 103.55416389 22.29303932 105.2552948 22.28514099 C106.81634697 22.28502769 106.81634697 22.28502769 108.40893555 22.28491211 C109.3216069 22.2826915 110.23427826 22.28047089 111.17460632 22.27818298 C113.79132687 22.4003672 116.19899974 22.81796962 118.75 23.3984375 C118.75 24.0584375 118.75 24.7184375 118.75 25.3984375 C120.6990625 25.7078125 120.6990625 25.7078125 122.6875 26.0234375 C132.94079054 28.33403818 143.05960124 36.90317388 148.75 45.5859375 C150.4049203 48.46925226 151.43561029 51.04494727 151.75 54.3984375 C152.41 54.3984375 153.07 54.3984375 153.75 54.3984375 C156.94454337 65.19837482 157.17882273 75.32534777 157.13818359 86.49243164 C157.14225669 88.38618776 157.14760269 90.27994149 157.15411377 92.1736908 C157.16770447 97.28106194 157.16252325 102.38824978 157.15297651 107.49562383 C157.14533805 112.86048551 157.15243698 118.22533235 157.15713501 123.5901947 C157.16257995 132.59539586 157.15543364 141.60052299 157.14111328 150.60571289 C157.12478427 160.99350254 157.13008224 171.38111554 157.1465925 181.76890093 C157.16023745 190.71451479 157.16211248 199.6600757 157.15427649 208.60569662 C157.14961714 213.93683257 157.14892717 219.26788567 157.15888596 224.59901619 C157.16759744 229.61178738 157.16145777 234.62433231 157.14420319 239.63707924 C157.1402608 241.46874874 157.14133349 243.30043751 157.14799118 245.13209915 C157.18047597 254.98283392 156.85860481 263.92523817 153.75 273.3984375 C153.09 273.3984375 152.43 273.3984375 151.75 273.3984375 C151.60304688 274.49865234 151.60304688 274.49865234 151.453125 275.62109375 C150.24112158 280.40850724 146.83484533 283.64731888 143.75 287.3984375 C142.6671875 288.9453125 142.6671875 288.9453125 141.5625 290.5234375 C137.77858391 295.05904062 131.99312933 297.87396782 126.75 300.3984375 C125.76 300.3984375 124.77 300.3984375 123.75 300.3984375 C123.75 301.0584375 123.75 301.7184375 123.75 302.3984375 C112.71540732 305.34093931 102.46484543 305.83477609 91.125 305.80249023 C89.29345283 305.80820569 87.46190921 305.81517445 85.63037109 305.82328796 C80.69648101 305.84110253 75.7627699 305.84007347 70.82885742 305.83434558 C66.69387555 305.83123738 62.55892726 305.83736405 58.4239502 305.84338433 C48.66281291 305.85738886 38.90176323 305.85590166 29.140625 305.84448242 C19.10329279 305.83299888 9.0662277 305.84709024 -0.97106934 305.8738789 C-9.62204863 305.89609476 -18.27294443 305.90266023 -26.9239502 305.89680248 C-32.07631843 305.89344654 -37.2285154 305.89575711 -42.38085938 305.91305351 C-47.22708524 305.92861533 -52.07291758 305.92446551 -56.91912842 305.90574837 C-58.68707204 305.90208825 -60.45504543 305.90509478 -62.22296143 305.91563416 C-72.95131822 305.97465929 -82.08752506 305.01718736 -92.25 301.3984375 C-92.25 300.7384375 -92.25 300.0784375 -92.25 299.3984375 C-93.095625 299.1715625 -93.94125 298.9446875 -94.8125 298.7109375 C-104.73523547 294.92225668 -110.26798089 287.37417829 -115.5 278.4609375 C-115.841521 277.88802979 -116.18304199 277.31512207 -116.53491211 276.72485352 C-120.52850288 269.68511833 -121.54996693 262.89976894 -121.52415466 254.98252869 C-121.52939134 254.17364986 -121.53462802 253.36477102 -121.54002339 252.53138071 C-121.55493552 249.84110049 -121.5557266 247.15101195 -121.55639648 244.46069336 C-121.56402405 242.52328168 -121.57245257 240.58587302 -121.58161926 238.64846802 C-121.60351615 233.39809613 -121.61235706 228.14778248 -121.61744571 222.8973701 C-121.62109591 219.61133245 -121.62733952 216.3253099 -121.6344471 213.03927803 C-121.6589279 201.55848653 -121.67198989 190.07774009 -121.67553711 178.59692383 C-121.67916809 167.92351034 -121.70903575 157.25038515 -121.75094169 146.57705969 C-121.78572991 137.39201665 -121.80108705 128.20706874 -121.80178314 119.02196032 C-121.80257325 113.54580443 -121.81118848 108.06994226 -121.83978081 102.5938549 C-121.86610686 97.43660185 -121.86808599 92.27988296 -121.85212517 87.12259293 C-121.85032201 85.24057022 -121.85689765 83.35851576 -121.87294388 81.47656059 C-121.99557335 66.146903 -120.46857885 52.84043388 -109.78125 40.90625 C-95.13785047 26.3984375 -95.13785047 26.3984375 -86.25 26.3984375 C-86.25 25.7384375 -86.25 25.0784375 -86.25 24.3984375 C-79.70356461 22.43586506 -73.77872496 22.13343148 -66.96875 22.203125 C-65.91465942 22.2059549 -64.86056885 22.20878479 -63.77453613 22.21170044 C-60.4329049 22.22282764 -57.09154919 22.24791846 -53.75 22.2734375 C-51.47396222 22.28347694 -49.19792022 22.2926011 -46.921875 22.30078125 C-41.36449053 22.3227425 -35.80726496 22.35614521 -30.25 22.3984375 C-30.270625 21.3053125 -30.29125 20.2121875 -30.3125 19.0859375 C-30.25 15.3984375 -30.25 15.3984375 -29.25 12.3984375 C-28.59 12.3984375 -27.93 12.3984375 -27.25 12.3984375 C-27.1675 11.8415625 -27.085 11.2846875 -27 10.7109375 C-25.94557798 7.45980294 -24.71467907 5.80149959 -22.25 3.3984375 C-15.1722407 -0.16776511 -7.75057676 -0.03941968 0 0 Z M-94.1875 53.3984375 C-96.7854313 56.33368562 -97.71663123 58.50957154 -98.25 62.3984375 C-98.91 62.3984375 -99.57 62.3984375 -100.25 62.3984375 C-102.82661655 71.26018254 -102.53181368 80.12106725 -102.50878906 89.25976562 C-102.5115022 91.06912883 -102.51506494 92.87849093 -102.51940918 94.68785095 C-102.52849701 99.58242204 -102.52500383 104.47690845 -102.51865101 109.37148094 C-102.51357232 114.50420732 -102.51828765 119.63692665 -102.52142334 124.76965332 C-102.52505754 133.38762711 -102.52027821 142.00556658 -102.51074219 150.62353516 C-102.4998587 160.57388005 -102.50338466 170.52414297 -102.514395 180.47448587 C-102.52348343 189.03185682 -102.52474554 197.58920315 -102.51951766 206.14657736 C-102.51640652 211.25130144 -102.51596506 216.35598704 -102.52259064 221.46070862 C-102.52838611 226.26079185 -102.52432699 231.06076983 -102.51280212 235.86084175 C-102.5101673 237.61797982 -102.51090042 239.37512681 -102.51532745 241.13226128 C-102.56197416 253.39316697 -102.56197416 253.39316697 -100.25 265.3984375 C-99.59 265.3984375 -98.93 265.3984375 -98.25 265.3984375 C-98.15847656 266.130625 -98.06695312 266.8628125 -97.97265625 267.6171875 C-96.31355306 274.00249274 -90.34875197 278.95126958 -84.9375 282.3984375 C-80.21237319 285.15875498 -76.14263305 285.55026978 -70.7568512 285.55906677 C-69.98687976 285.56415459 -69.21690833 285.56924241 -68.42360443 285.57448441 C-65.83522051 285.5902204 -63.24686454 285.59873713 -60.65844727 285.60717773 C-58.80557579 285.61671559 -56.9527061 285.62660672 -55.09983826 285.63682556 C-49.00538246 285.6682295 -42.91091297 285.68848484 -36.81640625 285.70703125 C-35.26022713 285.71197723 -35.26022713 285.71197723 -33.67261004 285.71702313 C-23.88394606 285.7478136 -14.09527898 285.77451656 -4.30658054 285.79144192 C8.20368515 285.81332753 20.71352049 285.85524773 33.22361416 285.92487949 C42.02463616 285.97219689 50.8255424 285.99638613 59.62668759 286.0036388 C64.87990287 286.00858487 70.13263331 286.02356559 75.38570976 286.0633831 C80.33445976 286.10039771 85.28245101 286.10861063 90.23131371 286.09537697 C92.04043369 286.09543068 93.84958855 286.10562883 95.65858078 286.1271286 C108.96266291 286.27669707 118.27425433 284.29852317 128.75 275.3984375 C137.9817604 264.59052289 138.32842192 252.00485906 138.2199707 238.45605469 C138.22048044 236.67418286 138.22274218 234.89231082 138.22660828 233.11044312 C138.23199463 228.30483133 138.21270597 223.49960993 138.18850732 218.69406796 C138.16710277 213.65032649 138.16780169 208.60658484 138.16581726 203.56280518 C138.15938505 195.09974512 138.13819401 186.6368304 138.10668945 178.17382812 C138.06635049 167.3236434 138.04899018 156.4735531 138.03938007 145.62330246 C138.03106821 136.27269555 138.0138411 126.92210844 137.99434257 117.5715189 C137.99029927 115.56951486 137.98655884 113.56751019 137.9831202 111.56550503 C137.97330764 105.85992004 137.95876172 100.15439092 137.9362812 94.44884109 C137.93018372 92.72353494 137.92571979 90.9982221 137.92303848 89.27290726 C137.91902567 86.91161112 137.90887806 84.55041677 137.89717102 82.18914795 C137.8907608 80.21039232 137.8907608 80.21039232 137.88422108 78.19166183 C137.74266795 74.19122631 137.30349338 70.36025429 136.75 66.3984375 C136.09 66.3984375 135.43 66.3984375 134.75 66.3984375 C134.70875 65.5940625 134.6675 64.7896875 134.625 63.9609375 C132.76921821 56.4052545 128.02331036 50.89630439 121.69140625 46.546875 C114.81565459 42.47952895 106.93839567 42.27471282 99.13528442 42.26472473 C98.40061412 42.26245917 97.66594381 42.26019362 96.90901077 42.25785941 C94.46422655 42.25156423 92.01949842 42.25234587 89.57470703 42.25317383 C87.81489999 42.25017956 86.05509361 42.24677642 84.29528809 42.24299622 C79.52665182 42.23417989 74.75803352 42.23181912 69.9893899 42.23118043 C67.00743963 42.23046866 64.0254939 42.22833195 61.04354477 42.22568321 C50.63303081 42.2164381 40.22252964 42.21234734 29.81201172 42.21313477 C20.1196022 42.21373555 10.42724834 42.20318135 0.73485291 42.1873911 C-7.59742204 42.17430209 -15.92967882 42.16895143 -24.26196396 42.16959018 C-29.23370264 42.16984473 -34.20539181 42.16701677 -39.17712021 42.15641212 C-43.85405275 42.14670807 -48.5308887 42.14666778 -53.20782471 42.15392876 C-54.91981269 42.15497168 -56.63180676 42.15262913 -58.34378433 42.1465683 C-72.43191183 42.09994067 -84.0736181 42.48121264 -94.1875 53.3984375 Z "
        fill="#0878DE" transform="translate(181.25,48.6015625)" />
    <path
        d="M0 0 C0.77717595 -0.00538554 1.5543519 -0.01077108 2.35507864 -0.01631981 C4.96152473 -0.03063744 7.56746568 -0.02348647 10.17393494 -0.01637268 C12.04155893 -0.02207418 13.90917944 -0.02903758 15.77679443 -0.03717041 C20.85102744 -0.05513893 25.92508787 -0.05392679 30.99934316 -0.04822803 C35.23178784 -0.04514227 39.46419907 -0.05122161 43.696639 -0.05726677 C53.67770594 -0.07132181 63.6586873 -0.06974186 73.63975525 -0.05836487 C83.94748069 -0.04687541 94.2549462 -0.06097103 104.56263739 -0.08776134 C113.40517325 -0.10988576 122.24762733 -0.1165633 131.09018892 -0.11068493 C136.37481595 -0.10730721 141.65927624 -0.10978465 146.94388008 -0.12693596 C151.91059106 -0.14235175 156.87691536 -0.13850951 161.84361076 -0.11963081 C163.66938068 -0.11593036 165.49517892 -0.11909551 167.32092285 -0.1295166 C169.8074181 -0.14262896 172.29261456 -0.13126734 174.77905273 -0.11352539 C175.50686591 -0.1231304 176.23467908 -0.1327354 176.9845472 -0.14263147 C180.24424184 -0.09454923 181.8881381 -0.04028095 184.2706213 2.28814602 C188.77188664 11.24251514 183.94496893 26.24351416 181.32603455 35.38768005 C175.63180457 51.99614138 164.86632512 66.83320717 150.95103455 77.45018005 C150.41220642 77.87105896 149.8733783 78.29193787 149.31822205 78.72557068 C139.339661 86.38768005 139.339661 86.38768005 134.32603455 86.38768005 C134.32603455 87.04768005 134.32603455 87.70768005 134.32603455 88.38768005 C117.1997115 95.706304 117.1997115 95.706304 108.32603455 95.38768005 C108.32603455 96.04768005 108.32603455 96.70768005 108.32603455 97.38768005 C101.80734595 98.22154276 95.45687469 98.54150964 88.88853455 98.51268005 C88.01132751 98.51654724 87.13412048 98.52041443 86.23033142 98.5243988 C80.20796836 98.51552281 74.30586609 98.09345934 68.32603455 97.38768005 C68.32603455 96.72768005 68.32603455 96.06768005 68.32603455 95.38768005 C67.75497986 95.3618988 67.18392517 95.33611755 66.5955658 95.30955505 C57.37726738 94.66471383 48.83779555 91.89622479 40.32603455 88.38768005 C40.32603455 87.72768005 40.32603455 87.06768005 40.32603455 86.38768005 C39.05759705 86.01643005 39.05759705 86.01643005 37.76353455 85.63768005 C33.94175981 84.24794378 30.80735392 82.47647168 27.32603455 80.38768005 C27.32603455 79.72768005 27.32603455 79.06768005 27.32603455 78.38768005 C26.74466736 78.12213318 26.16330017 77.8565863 25.5643158 77.58299255 C16.07754951 72.51676134 9.21779691 62.99967119 3.45103455 54.20018005 C2.8604425 53.30867249 2.8604425 53.30867249 2.25791931 52.39915466 C0.14786973 49.09249888 -1.21709831 46.30052606 -1.67396545 42.38768005 C-2.33396545 42.38768005 -2.99396545 42.38768005 -3.67396545 42.38768005 C-4.69520838 39.24835395 -5.68688244 36.10039769 -6.67396545 32.95018005 C-6.96013733 32.07168396 -7.2463092 31.19318787 -7.54115295 30.28807068 C-9.3571297 24.4293838 -9.97338236 19.51948876 -9.67396545 13.38768005 C-10.33396545 13.38768005 -10.99396545 13.38768005 -11.67396545 13.38768005 C-11.78221389 11.78500185 -11.85967191 10.18022257 -11.92396545 8.57518005 C-11.9703717 7.68185974 -12.01677795 6.78853943 -12.06459045 5.8681488 C-11.67396545 3.38768005 -11.67396545 3.38768005 -10.12917423 1.75688076 C-6.78060306 -0.11052296 -3.73388636 -0.03092802 0 0 Z "
        fill="#0678DE" transform="translate(111.67396545410156,217.61231994628906)" />
    <path
        d="M0 0 C1.22223518 -0.02870934 1.22223518 -0.02870934 2.46916199 -0.05799866 C3.78633965 -0.06300636 3.78633965 -0.06300636 5.13012695 -0.06811523 C6.03914261 -0.07810043 6.94815826 -0.08808563 7.88471985 -0.09837341 C9.81047007 -0.11356636 11.73629929 -0.12059884 13.66210938 -0.12011719 C16.59095018 -0.12664776 19.51634408 -0.1810272 22.44458008 -0.23803711 C24.3189175 -0.24684575 26.19327096 -0.25279557 28.06762695 -0.25561523 C29.36962288 -0.28795006 29.36962288 -0.28795006 30.69792175 -0.32093811 C37.25339568 -0.24809024 41.31531248 1.76572277 45.9309082 6.43579102 C47.50012039 8.70196206 48.67327682 10.9671072 49.9309082 13.43579102 C50.91321318 14.45317832 51.90560417 15.46175219 52.9309082 16.43579102 C52.9309082 17.09579102 52.9309082 17.75579102 52.9309082 18.43579102 C70.4209082 18.76579102 87.9109082 19.09579102 105.9309082 19.43579102 C106.9209082 16.96079102 106.9209082 16.96079102 107.9309082 14.43579102 C112.82982651 7.65558707 118.46522426 2.50814095 126.80200195 0.75219727 C135.59550737 -0.55472739 143.34735776 0.96772539 151.1809082 5.18579102 C158.16025681 10.89616715 162.30711578 16.63452152 163.2824707 25.70532227 C163.69765291 35.78987967 161.45513576 42.73227383 154.8059082 50.31079102 C149.10632572 55.52923991 141.98924167 57.61459228 134.3684082 57.87329102 C125.05698393 57.43619713 118.62591326 55.06976047 111.84887695 48.56860352 C109.03027562 45.4342729 105.9309082 41.83724811 105.9309082 37.43579102 C98.91949971 37.45208805 91.9091458 37.50694585 84.89819336 37.58837891 C82.51414834 37.61154857 80.13000111 37.62595217 77.74584961 37.63134766 C74.31470113 37.64064422 70.88515803 37.68165382 67.4543457 37.72875977 C66.39162445 37.72482712 65.3289032 37.72089447 64.23397827 37.71684265 C57.80583318 37.80955971 57.80583318 37.80955971 52.32275391 40.83300781 C50.18011958 43.16460162 48.39597646 45.36668815 46.7434082 48.06079102 C45.01294902 50.85431466 43.47531044 53.33190775 40.9309082 55.43579102 C38.87792969 55.82397461 38.87792969 55.82397461 36.55200195 55.83422852 C35.7134668 55.8380957 34.87493164 55.84196289 34.01098633 55.84594727 C33.13893555 55.8343457 32.26688477 55.82274414 31.3684082 55.81079102 C30.49249023 55.82239258 29.61657227 55.83399414 28.71411133 55.84594727 C27.87686523 55.84208008 27.03961914 55.83821289 26.17700195 55.83422852 C25.02735962 55.82915283 25.02735962 55.82915283 23.85449219 55.82397461 C21.9309082 55.43579102 21.9309082 55.43579102 19.9309082 52.43579102 C19.8059082 49.24829102 19.8059082 49.24829102 19.9309082 46.43579102 C19.28541016 46.44626465 18.63991211 46.45673828 17.97485352 46.4675293 C15.04357819 46.50916374 12.11236516 46.53514077 9.1809082 46.56079102 C8.16512695 46.57754883 7.1493457 46.59430664 6.1027832 46.61157227 C5.1230957 46.61801758 4.1434082 46.62446289 3.1340332 46.63110352 C1.78293457 46.64681396 1.78293457 46.64681396 0.40454102 46.6628418 C-2.24536761 46.41961094 -3.83749736 45.8651906 -6.0690918 44.43579102 C-7.29600247 41.98196968 -7.27085111 40.23594998 -7.3190918 37.49829102 C-7.34487305 36.62301758 -7.3706543 35.74774414 -7.3972168 34.84594727 C-7.0690918 32.43579102 -7.0690918 32.43579102 -5.88842773 30.80834961 C-3.40129774 28.93198826 -1.72637482 29.06700911 1.3684082 29.06469727 C2.95782227 29.03859375 2.95782227 29.03859375 4.5793457 29.01196289 C6.81370818 29.00284836 9.04809001 28.99763998 11.2824707 28.99633789 C12.87188477 28.96830078 12.87188477 28.96830078 14.4934082 28.93969727 C15.46407227 28.93784424 16.43473633 28.93599121 17.43481445 28.93408203 C20.06189921 28.65164244 20.06189921 28.65164244 21.77856445 26.56835938 C23.15834355 24.45399501 23.15834355 24.45399501 22.8059082 21.81079102 C22.0741596 19.10591329 22.0741596 19.10591329 18.9309082 17.43579102 C16.34936975 17.11688449 16.34936975 17.11688449 13.45825195 17.12719727 C12.39413086 17.10206055 11.33000977 17.07692383 10.23364258 17.05102539 C7.9863054 17.01580885 5.7389024 16.98457232 3.49145508 16.95727539 C1.89720703 16.91763672 1.89720703 16.91763672 0.27075195 16.87719727 C-1.19309937 16.85701538 -1.19309937 16.85701538 -2.68652344 16.83642578 C-3.472771 16.70421631 -4.25901855 16.57200684 -5.0690918 16.43579102 C-7.21462557 13.21749036 -7.36493048 12.16792595 -7.3815918 8.43579102 C-7.39834961 7.56954102 -7.41510742 6.70329102 -7.43237305 5.81079102 C-6.75649558 1.39215121 -4.24834433 0.06791442 0 0 Z "
        fill="#0778DE" transform="translate(126.069091796875,134.564208984375)" />
    <path
        d="M0 0 C5.96189008 8.94283513 4.26977689 21.63496182 4.22705078 31.94384766 C4.22648595 33.85662836 4.22680463 35.76940949 4.22793579 37.68218994 C4.22850749 42.85089283 4.21678282 48.0195021 4.20278788 53.18818331 C4.19024999 58.59870709 4.18910761 64.00923322 4.18673706 69.41976929 C4.18053127 79.65467141 4.16413265 89.8895306 4.14403808 100.12441385 C4.12165102 111.78100804 4.1106786 123.43760433 4.10064721 135.09421468 C4.07976562 159.06283355 4.04460718 183.03141437 4 207 C3.67 207 3.34 207 3 207 C3 143.64 3 80.28 3 15 C2.34 15 1.68 15 1 15 C0.67 10.05 0.34 5.1 0 0 Z "
        fill="#257FE2" transform="translate(334,103)" />
    <path
        d="M0 0 C5.31180914 7.96771371 4.24806818 18.43275398 4.125 27.625 C4.11597656 28.91535156 4.10695313 30.20570313 4.09765625 31.53515625 C4.0742848 34.69030249 4.04152091 37.84504926 4 41 C3.67 41 3.34 41 3 41 C3 32.42 3 23.84 3 15 C2.34 15 1.68 15 1 15 C0.67 10.05 0.34 5.1 0 0 Z "
        fill="#3686E4" transform="translate(334,103)" />
    <path
        d="M0 0 C1.2463623 0.05236816 2.49272461 0.10473633 3.77685547 0.15869141 C4.43990692 0.18371735 5.10295837 0.20874329 5.78610229 0.23452759 C7.90593312 0.31676657 10.02483734 0.41333755 12.14404297 0.51025391 C13.58020291 0.56848972 15.01640099 0.62579309 16.45263672 0.68212891 C19.97527899 0.82234933 23.49722957 0.97542991 27.01904297 1.13525391 C27.01904297 1.46525391 27.01904297 1.79525391 27.01904297 2.13525391 C11.67404297 2.63025391 11.67404297 2.63025391 -3.98095703 3.13525391 C-3.98095703 6.10525391 -3.98095703 9.07525391 -3.98095703 12.13525391 C-4.31095703 12.13525391 -4.64095703 12.13525391 -4.98095703 12.13525391 C-5.03491181 10.51061549 -5.07372898 8.8854685 -5.10595703 7.26025391 C-5.12916016 6.35533203 -5.15236328 5.45041016 -5.17626953 4.51806641 C-4.86622953 0.73557834 -3.68667721 0.1672743 0 0 Z "
        fill="#227FE1" transform="translate(104.98095703125,218.86474609375)" />
    <path
        d="M0 0 C3.3 0.33 6.6 0.66 10 1 C10 1.66 10 2.32 10 3 C16.6 3 23.2 3 30 3 C30 3.33 30 3.66 30 4 C26.70835283 4.02952761 23.41674062 4.04697292 20.125 4.0625 C18.74828125 4.07506836 18.74828125 4.07506836 17.34375 4.08789062 C11.1664353 4.10964173 5.13278165 3.73930108 -1 3 C-0.67 2.01 -0.34 1.02 0 0 Z "
        fill="#5292E4" transform="translate(181,312)" />
    <path
        d="M0 0 C6.875 0.875 6.875 0.875 8 2 C10.32817964 2.36760731 12.6618385 2.70241581 15 3 C15 3.66 15 4.32 15 5 C4.24281984 4.39425587 4.24281984 4.39425587 0 1 C0 0.67 0 0.34 0 0 Z "
        fill="#2078DE" transform="translate(93,349)" />
    <path
        d="M0 0 C2.0625 0.4375 2.0625 0.4375 4 1 C2.71034824 2.37562854 1.37310707 3.70766393 0 5 C-0.66 5 -1.32 5 -2 5 C-2 5.66 -2 6.32 -2 7 C-3.65 7.33 -5.3 7.66 -7 8 C-6.02133662 6.85373678 -5.04205413 5.70800212 -4.0625 4.5625 C-3.51722656 3.92441406 -2.97195312 3.28632813 -2.41015625 2.62890625 C-1.63204305 1.73008851 -0.84063472 0.84063472 0 0 Z "
        fill="#1F78DF" transform="translate(242,140)" />
    <path
        d="M0 0 C0.99 0.33 1.98 0.66 3 1 C4.6875 4.5625 4.6875 4.5625 6 8 C5.01 8.33 4.02 8.66 3 9 C2.01 6.03 1.02 3.06 0 0 Z "
        fill="#2D80E2" transform="translate(313,106)" />
    <path
        d="M0 0 C0.66 0.33 1.32 0.66 2 1 C-2.39453125 5.00390625 -2.39453125 5.00390625 -4 6 C-4.99 5.67 -5.98 5.34 -7 5 C-7 4.34 -7 3.68 -7 3 C-4.69631264 1.93347808 -2.35981813 0.93578995 0 0 Z "
        fill="#378CE4" transform="translate(300,330)" />
    <path
        d="M0 0 C0.66 0.66 1.32 1.32 2 2 C1.625 5.625 1.625 5.625 1 9 C0.34 9 -0.32 9 -1 9 C-0.67 6.03 -0.34 3.06 0 0 Z "
        fill="#2E83E1" transform="translate(334,313)" />
    <path
        d="M0 0 C3.91402949 1.26941497 5.79072873 2.51167694 8 6 C5 6 5 6 3.61328125 4.6875 C2.40885417 3.125 1.20442708 1.5625 0 0 Z "
        fill="#2376DE" transform="translate(122,281)" />
    <path
        d="M0 0 C1.32 0 2.64 0 4 0 C4 0.66 4 1.32 4 2 C6.97 2.495 6.97 2.495 10 3 C9.67 3.66 9.34 4.32 9 5 C2.25 3.375 2.25 3.375 0 0 Z "
        fill="#2577DF" transform="translate(243,186)" />
    <path
        d="M0 0 C0.99 0.33 1.98 0.66 3 1 C1.35 2.65 -0.3 4.3 -2 6 C-2.33 5.01 -2.66 4.02 -3 3 C-2.01 2.01 -1.02 1.02 0 0 Z "
        fill="#257EE1" transform="translate(159,52)" />
</svg>